<mxfile host="65bd71144e">
    <diagram id="UYaTIbB10q600SS0Kv3Y" name="Page-1">
        <mxGraphModel dx="999" dy="820" grid="1" gridSize="10" guides="1" tooltips="1" connect="1" arrows="1" fold="1" page="1" pageScale="1" pageWidth="800" pageHeight="400" background="#F7F5F5" math="0" shadow="1">
            <root>
                <mxCell id="0"/>
                <mxCell id="1" parent="0"/>
                <mxCell id="2" value="Cloud&#10;Composer" style="html=1;verticalAlign=top;labelPosition=center;verticalLabelPosition=bottom;align=center;spacingTop=-6;fontSize=11;fontStyle=1;fontColor=#999999;shape=image;aspect=fixed;imageAspect=0;image=data:image/svg+xml,PHN2ZyB4bWxucz0iaHR0cDovL3d3dy53My5vcmcvMjAwMC9zdmciIHhtbG5zOnY9Imh0dHBzOi8vdmVjdGEuaW8vbmFubyIgd2lkdGg9IjE0LjY0MDAwMDM0MzMyMjc1NCIgaGVpZ2h0PSIyMCIgdmlld0JveD0iMCAwIDE0LjY0MDAwMDM0MzMyMjc1NCAyMCI+JiN4YTsJPHN0eWxlIHR5cGU9InRleHQvY3NzIj4mI3hhOwkuc3Qwe2ZpbGw6I2FlY2JmYTt9JiN4YTsJLnN0MXtmaWxsOiM0Mjg1ZjQ7fSYjeGE7CTwvc3R5bGU+JiN4YTsJPHBhdGggY2xhc3M9InN0MCIgZD0iTTAgMGgxNC42M3YzLjk0aC01LjN2NS4zM0g1LjM1VjMuOTZIMHoiLz4mI3hhOwk8cGF0aCBjbGFzcz0ic3QxIiBkPSJNMy45NSAxMC42N2g1LjM0VjIwSDUuMzV2LTUuMzVIMFY1LjM3aDMuOTV6TTE0LjY0IDIwSDEwLjdWNS4zNmgzLjk0eiIvPiYjeGE7CTxwYXRoIGNsYXNzPSJzdDAiIGQ9Ik0wIDE2LjA2aDMuOTJWMjBIMHoiLz4mI3hhOzwvc3ZnPg==;strokeColor=#000000;" vertex="1" parent="1">
                    <mxGeometry x="334.25" y="40" width="32" height="42" as="geometry"/>
                </mxCell>
                <mxCell id="16" style="edgeStyle=none;html=1;exitX=1;exitY=0.5;exitDx=0;exitDy=0;entryX=0;entryY=0.5;entryDx=0;entryDy=0;strokeColor=#000000;" edge="1" parent="1" source="3" target="12">
                    <mxGeometry relative="1" as="geometry"/>
                </mxCell>
                <mxCell id="3" value="Google analytics API" style="shape=image;verticalLabelPosition=bottom;labelBackgroundColor=none;verticalAlign=top;aspect=fixed;imageAspect=0;image=data:image/png,iVBORw0KGgoAAAANSUhEUgAAAFkAAABSCAYAAAA/zHhsAAAAAXNSR0IArs4c6QAAAARnQU1BAACxjwv8YQUAAAAJcEhZcwAADsMAAA7DAcdvqGQAAAeCSURBVHhe7Z1bbBRVGMf/M7O7nW23tgULCl5AgUAkJBqst0jVRH3yxWg0xsREjUrUB68xQkRjgCgJRgNqePHBeE00XmJiIpCACBoVVEC5RSja2ha29LL33dnx+2ZODUh3mZldjiN7fsmkM+fMOXvmt9+cmcmeM9VsAorTii7+Kk4jKpIF1p6XYKS2wx7dC5tiT2ubh3Lb1TBmPSz2CE7DS7Z+eRzawbXQtQKQAoqUFqFF48wEUNZagFlPQZ+3jFMC0dCSyxsWQB/ZiRz5dSwYJMSxK7YtV7YZo+2zu6B1f+fk+aVhJZfXz4VOXUMqC0RJ4rjcf8N2inkKagpoe/IiaIs2iRzvNOSFz/r+nn8Ex5oqC2Y4L2ZST0JdiZbcjPLel0WOdxozkj/TkBpzBXuFLdklivpEAsYtVNgHDRfJ5e0PASTLoP7XDxzRLNqgq6N16G2R6o2Gk6yN/QCbugnNp2QHLpMmacmN7rZHGk6yPXYIJbpHq9INV0YUslMH3BWPNJ5kWqpd6KoxXs4ujLgrHmm87sLpXMVGEBzR/ipoOMn/BUqyBJRkCSjJElCSJaAkS0BJloCSLAElWQJKsgSUZAkoyRJQkiWgJEtASZaAkiwBJVkC/5shAZZlIb1xOayer2Hkj4F/OrbNDmjTr0DzoicQaZkk9qxO+YtOlFNHYVF4+f0ZqkymzDK1ZdJ8GDfuFKmn5n8heeSTR0nwGrRYQJYW/iGU0UpAgtYzeSDefQfa737fzajCfyE59N3F0dXzEVu/BnkDSDYBeR4EaLqLRetDMSBNfyNbP8Dg8vNFqXARaslDqy9B9MBu/EHRGqElRqINij79uCVKaSbl9dMXEBn4E4MrZ4jS4SG0koc/Woz4779igCK1OUqntkivBItO0tG09Pbg2If3itRwEErJpUwG6S/fRD/JjdPiFZP2HSTZuS1voVSiDjskhFJydsvLSPCYYArfU0Xw8fC+Nh1RgvxmN61yE0NAOCP58DfI0lXcCNA67rPTtBQO+h9HfLoIpWQ9m0TJZxSPw7dlPCWhqTTqJoSAUEouF7PQamgZ33UUM/TAEhJCKdkZr1Yj9aijXoRS8pmGkiwBJVkCSrIElGQJKMkSUJIloCRLQEmWgJIsASVZAkqyBJRkCSjJElCSJaAkS0BJlkDdJQ9/9CCOrF6A5MrzkFwxHYOr5mH43btQOHJQ7NF41E3y8Dt3IvOchuL6dSgc2olMfy8yA30oHd6D7Kb3gGUXIbnmSrF3Y1EXyQMvToO+9QP0DAPpZsCKUSIPSqGl1AQUEsBB3t73HQaWxFHo28XFGoaaJQ+smIFY8i8MkthWHo9GNfKvxfw7Ji+8zuMnWih/lESXszmMrF0oSjcGNUlOffooWvp6cJTWeSzaqYjSp+VY/mgex97sFqlnPjVJzn+7Bn0k1894NRY9ZNDfHzej+NdukXpmE1jy2IYViI643YNfeAhshpdNK0XKmU1gyaXD2/gVac7YM79wP12gM8Dq/VGknEg9Bv9XqsNJD9DmfwjQtMCSi6N9zgvsggzU4SIadTHFFPfmJ6MZlFmLZ/bIdUwENzho3VSOR41quocL0HEElqzpZLgWEUyFL8ho7kC5LDYCYFG7ohUm6mi6iXLAo+bDdQIk1uFseyWw5GjHDOoz6IMDiOYidpH65vaJ53gUzamIU8t4IoxfuD0mLbnYZJFyInr7JYgVgtXtNJzfqXzWPHfbI4ElR2YucmYecdT4hQ8wTosxfeL75aY5N6OJZxkFiGYuY1K4mRffIFJOxGrtoht68kWy/OKUoQcra/KNboJHappi1v9sDNl0ERF60Khw5k8IFcEUktG6KodI08Tv1+1f2opMOuVMvPHa7/ORFKneRDyOKcszIvVkrI91FEu2U6+funU6c/VEG4xb6NHWB4EjmWm+fimm5ulWjE4/r+Sooefy/l23VxTMNHc/jWlZqptHdHskS3WfQ+2JLrxPpFRgxgPOw1PRR938NvCoSV/KnCUixTs1T5YceuNaxH7agl5qgDNLqUJk8IfkScIknuw4dRqmLOl1M6qQXHs1Yru3oY/qba5ytnDdORLWSXUXL5iLzqd+czOqYH81B9rIfqToC49WazefHfy69Th1c2dfA717i8jxTl1mpA6vvQqRn7/FkRZqCG3zA8p4o7nyEiUatDIpR6IvvBCdzxxyMz2QfPUymHt2YICCnm+fnLpF3njdOq10Ut3ZmbPR+fQ+N9MDjujR/c7ZxXczx9+SOlb4Ikd/TP7sjkuhXb/dyfNL3ab9jq1/kZ7gXkJiKI0xjlY6HXlKgkYH30aNHG3WEL/8frTftk6U8M7I508it/U1tKaKGKb6bIoqRqPupJ3rTugwux5E+62vuxk+sHYsBnrW0UMVWaZunHw7AeG45tmvmgl75mMw5q/glEDUTfI4qa1voPzHNygN/EZX4xIinbPpKjcfbTc9L/YIztjmV6jubSgd2e9sR6fMhjatC63XPels14K1+wXomV30je2DTSHN/8zFbrsK+qxHxB7BqbtkxcnUdHeh8IaSLAElWQJKsgSU5NMO8DeFqmbREcJ61QAAAABJRU5ErkJggg==;strokeColor=#000000;fontColor=#080808;" vertex="1" parent="1">
                    <mxGeometry x="40" y="160" width="43.41" height="40" as="geometry"/>
                </mxCell>
                <mxCell id="25" style="edgeStyle=none;html=1;exitX=1;exitY=0.5;exitDx=0;exitDy=0;entryX=0;entryY=0.5;entryDx=0;entryDy=0;dashed=1;strokeColor=#000000;" edge="1" parent="1" source="4" target="22">
                    <mxGeometry relative="1" as="geometry"/>
                </mxCell>
                <mxCell id="4" value="&lt;font color=&quot;#000000&quot;&gt;BigQuery&lt;br&gt;Bronze&lt;/font&gt;" style="html=1;verticalAlign=top;labelPosition=center;verticalLabelPosition=bottom;align=center;spacingTop=-6;fontSize=11;fontStyle=1;fontColor=#999999;shape=image;aspect=fixed;imageAspect=0;image=data:image/svg+xml,PHN2ZyB4bWxucz0iaHR0cDovL3d3dy53My5vcmcvMjAwMC9zdmciIHhtbG5zOnY9Imh0dHBzOi8vdmVjdGEuaW8vbmFubyIgd2lkdGg9IjIwLjAwMTA0NTIyNzA1MDc4IiBoZWlnaHQ9IjIwLjAwMTA0NTIyNzA1MDc4IiBmaWxsLXJ1bGU9ImV2ZW5vZGQiIHZpZXdCb3g9IjAgMCAyMC4wMDEwNDUyMjcwNTA3OCAyMC4wMDEwNDUyMjcwNTA3OCI+JiN4YTsJPHN0eWxlIHR5cGU9InRleHQvY3NzIj4mI3hhOwkuc3Qwe2ZpbGw6I2FlY2JmYTt9JiN4YTsJLnN0MXtmaWxsOiM2NjlkZjY7fSYjeGE7CS5zdDJ7ZmlsbDojNDI4NWY0O30mI3hhOwk8L3N0eWxlPiYjeGE7CTxwYXRoIGNsYXNzPSJzdDAiIGQ9Ik00LjczIDguODN2Mi42M2E0LjkxIDQuOTEgMCAwIDAgMS43MSAxLjc0VjguODN6Ii8+JiN4YTsJPHBhdGggY2xhc3M9InN0MSIgZD0iTTcuODkgNi40MXY3LjUzQTcuNjIgNy42MiAwIDAgMCA5IDE0YTggOCAwIDAgMCAxIDBWNi40MXoiLz4mI3hhOwk8cGF0aCBjbGFzcz0ic3QwIiBkPSJNMTEuNjQgOS44NnYzLjI5YTUgNSAwIDAgMCAxLjctMS44MlY5Ljg2eiIvPiYjeGE7CTxwYXRoIGNsYXNzPSJzdDIiIGQ9Ik0xNS43NCAxNC4zMmwtMS40MiAxLjQyYS40Mi40MiAwIDAgMCAwIC42bDMuNTQgMy41NGEuNDIuNDIgMCAwIDAgLjU5IDBsMS40My0xLjQzYS40Mi40MiAwIDAgMCAwLS41OWwtMy41NC0zLjU0YS40Mi40MiAwIDAgMC0uNiAwIi8+JiN4YTsJPHBhdGggY2xhc3M9InN0MSIgZD0iTTkgMGE5IDkgMCAxIDAgMCAxOEE5IDkgMCAxIDAgOSAwbTAgMTUuNjlhNi42OCA2LjY4IDAgMCAxIC4wMDctMTMuMzYgNi42OCA2LjY4IDAgMCAxIDQuNzI3IDExLjQwM0E2LjY4IDYuNjggMCAwIDEgOSAxNS42OSIvPiYjeGE7PC9zdmc+;strokeColor=#000000;" vertex="1" parent="1">
                    <mxGeometry x="306.43" y="286" width="42" height="42" as="geometry"/>
                </mxCell>
                <mxCell id="7" value="&lt;font color=&quot;#000000&quot;&gt;Looker&lt;br&gt;Dashboard&lt;/font&gt;" style="html=1;verticalAlign=top;labelPosition=center;verticalLabelPosition=bottom;align=center;spacingTop=-6;fontSize=11;fontStyle=1;fontColor=#999999;shape=image;aspect=fixed;imageAspect=0;image=data:image/svg+xml,PHN2ZyB4bWxucz0iaHR0cDovL3d3dy53My5vcmcvMjAwMC9zdmciIGlkPSJzdmc4OTgwMSIgdmVyc2lvbj0iMS4xIiB2aWV3Qm94PSIwIDAgMjA4LjA1NjU1IDMzNC42MTMxNiIgaGVpZ2h0PSIzMzQuNjEzMTZtbSIgd2lkdGg9IjIwOC4wNTY1NW1tIj4mI3hhOyAgJiN4YTsgIDxkZWZzIGlkPSJkZWZzODk3OTgiLz4mI3hhOyAgPGcgdHJhbnNmb3JtPSJ0cmFuc2xhdGUoLTQuMjQ2MjUyNCwxNS42NzE5MTEpIiBpZD0ibGF5ZXIxIj4mI3hhOyAgICA8cGF0aCBpZD0icGF0aDkxODAyIiB0cmFuc2Zvcm09InNjYWxlKDAuMjY0NTgzMzMpIiBkPSJtIDQwOS4yMjI2Niw0MTkuMDk5NjEgYyAtMzYuNjA4MTEsMCAtNzIuMDc2NjcsNS4wNzUzIC0xMDUuNzUzOTEsMTQuNTMxMjUgbCA0OS4wMzUxNiwxMjAuMDQxMDIgYyAxOC4yNjE3MiwtMy45Mzg5OSAzNy4yMjE5NiwtNi4wNjgzNiA1Ni43MTg3NSwtNi4wNjgzNiAxNDYuOTM1MTQsMCAyNjQuNjc3NzMsMTE3LjczNDc3IDI2NC42Nzc3MywyNjQuNjY5OTIgMCwxNDYuOTM1MTQgLTExNy43NDI1OSwyNjQuNjY5OTYgLTI2NC42Nzc3MywyNjQuNjY5OTYgLTE0Ni45MzUxNiwwIC0yNjQuNjY5OTEsLTExNy43MzQ4MiAtMjY0LjY2OTkzLC0yNjQuNjY5OTYgMCwtOTkuMTg3NjMgNTMuNjg5ODMsLTE4NS4wMDU5NiAxMzMuNzU1ODYsLTIzMC4zNDc2NiBMIDIyOS42MjY5NSw0NjIuNzUgQyAxMDMuMDI0Nyw1MjguMjI0NzQgMTYuMDQ4ODI3LDY2MC41MDUyMyAxNi4wNDg4MjgsODEyLjI3MzQ0IGMgMi4zZS01LDIxNi4zODM3NiAxNzYuNzkwMDYyLDM5My4xNzM4NiAzOTMuMTczODMyLDM5My4xNzM4NiAyMTYuMzgzNzMsMCAzOTMuMTgxNjQsLTE3Ni43OTAxIDM5My4xODE2NCwtMzkzLjE3Mzg2IDNlLTUsLTIxNi4zODM3OCAtMTc2Ljc5Nzg3LC0zOTMuMTczODMgLTM5My4xODE2NCwtMzkzLjE3MzgzIHoiIHN0eWxlPSJjb2xvcjojMDAwMDAwO29wYWNpdHk6MTtmaWxsOiM1OTg2ZjI7ZmlsbC1vcGFjaXR5OjE7c3Ryb2tlLXdpZHRoOjMuNzc5NTM7c3Ryb2tlLWxpbmVqb2luOnJvdW5kOy1pbmtzY2FwZS1zdHJva2U6bm9uZSIvPiYjeGE7ICAgIDxwYXRoIGQ9Im0gMTg5Ljk0MzM2LDg2LjI1IGMgLTk1LjEzMDMzMSwwIC0xNzMuMTc5Njg4LDc4LjA1NTIyIC0xNzMuMTc5Njg4LDE3My4xODU1NSAtNmUtNiw5NS4xMzAzMyA3OC4wNDkzNTMsMTczLjE3OTY4IDE3My4xNzk2ODgsMTczLjE3OTY4IDkuMDE2MTgsMCAxNy44NzU4LC0wLjcwODMyIDI2LjUzMzIsLTIuMDU4NTkgbCAtMzQuODI4MTIsLTg1LjI2NTYyIGMgLTQ0LjE1NzMsLTQuMDg2NjkgLTc3Ljk1NTA4LC00MC41MDcwNSAtNzcuOTU1MDgsLTg1Ljg1NTQ3IDAsLTQ4LjE1MDM5IDM4LjA5OTYyLC04Ni4yNTU4NiA4Ni4yNSwtODYuMjU1ODYgMTMuMTU5NzcsMCAyNS41NTg4OCwyLjg2MjQ2IDM2LjY0NDUzLDcuOTgyNDIgbCA2NC41NTQ2OSwtNjEuOTE5OTIgQyAyNjIuNjA4MzcsOTguNTMzOTEgMjI3LjYyOTI5LDg2LjI1IDE4OS45NDMzNiw4Ni4yNSBaIG0gMTM4Ljg4ODY3LDcwLjE2MjExIC02My40Mjc3Myw2MC44MzU5NCBjIDYuODc2MzgsMTIuNDI2NzggMTAuNzg5MDYsMjYuNzg4MTUgMTAuNzg5MDYsNDIuMTg3NSAwLDIxLjc2NzEyIC03LjgwNDE1LDQxLjQ2NTQgLTIwLjc4NTE2LDU2LjUzMzIgbCAzNC41MjM0NCw4NC41MTk1MyBjIDQ0LjE3Mzg3LC0zMS40ODc1MSA3My4xOTE0MSwtODMuMDc4OTIgNzMuMTkxNDEsLTE0MS4wNTI3MyAwLC0zOC40ODM1NSAtMTIuNzgyLC03NC4xNjUzMiAtMzQuMjkxMDIsLTEwMy4wMjM0NCB6IiB0cmFuc2Zvcm09InNjYWxlKDAuMjY0NTgzMzMpIiBzdHlsZT0iY29sb3I6IzAwMDAwMDtvcGFjaXR5OjE7ZmlsbDojNmY5OGY0O2ZpbGwtb3BhY2l0eToxO3N0cm9rZS13aWR0aDozLjc3OTUzO3N0cm9rZS1saW5lam9pbjpyb3VuZDstaW5rc2NhcGUtc3Ryb2tlOm5vbmUiIGlkPSJwYXRoOTE3OTgiLz4mI3hhOyAgICA8cGF0aCBpZD0icGF0aDg5OTI4IiB0cmFuc2Zvcm09InNjYWxlKDAuMjY0NTgzMzMpIiBkPSJtIDQwNi4xMzY3MiwtNTkuMjMyNDIyIGMgLTU4LjgxNTQ3LDhlLTYgLTEwNy4xMDM1Miw0OC4yODgwNDUgLTEwNy4xMDM1MiwxMDcuMTAzNTE2IDAsMTguNDk0NDUxIDQuNzgxMDEsMzUuOTQ1MDE3IDEzLjE1NjI1LDUxLjE4MzU5NCBsIDQ0LjMxMjUsLTQyLjUwMzkwNyBjIC0wLjQ3NTY3LC0yLjgyMDc3NSAtMC43NzUzOSwtNS43MDc1NjQgLTAuNzc1MzksLTguNjc5Njg3IDAsLTI4LjE3NjM4IDIyLjIzMzc4LC01MC40MTAxNTI1IDUwLjQxMDE2LC01MC40MTAxNTY1IDI4LjE3NjM4LC00ZS02IDUwLjQxMDE1LDIyLjIzMzc3MDUgNTAuNDEwMTYsNTAuNDEwMTU2NSAwLDI4LjE3NjM4MSAtMjIuMjMzNzgsNTAuNDEyMTEzIC01MC40MTAxNiw1MC40MTIxMDkgLTUuMDY4NjksLTEwZS03IC05LjkzNDE3LC0wLjc0NTYzMSAtMTQuNTIzNDQsLTIuMDg5ODQ0IGwgLTQzLjM2MTMzLDQxLjU5MTgwMSBjIDE2LjczMjIzLDEwLjg0Nzk1IDM2LjYxMTIzLDE3LjE4OTQ1IDU3Ljg4NDc3LDE3LjE4OTQ1IDU4LjgxNTQ5LDEwZS02IDEwNy4xMDM1MSwtNDguMjg4MDQgMTA3LjEwMzUxLC0xMDcuMTAzNTE2IDAsLTU4LjgxNTQ4MyAtNDguMjg4MDIsLTEwNy4xMDM1MjMgLTEwNy4xMDM1MSwtMTA3LjEwMzUxNiB6IiBzdHlsZT0iY29sb3I6IzAwMDAwMDtvcGFjaXR5OjE7ZmlsbDojZDZlM2ZiO2ZpbGwtb3BhY2l0eToxO3N0cm9rZS13aWR0aDozLjc3OTUzO3N0cm9rZS1saW5lam9pbjpyb3VuZDstaW5rc2NhcGUtc3Ryb2tlOm5vbmUiLz4mI3hhOyAgPC9nPiYjeGE7PC9zdmc+;strokeColor=#000000;" vertex="1" parent="1">
                    <mxGeometry x="690" y="190" width="49.53" height="80" as="geometry"/>
                </mxCell>
                <mxCell id="10" value="" style="shape=curlyBracket;whiteSpace=wrap;html=1;rounded=1;flipH=1;labelPosition=right;verticalLabelPosition=middle;align=left;verticalAlign=middle;size=0.5;rotation=-90;strokeColor=#000000;" vertex="1" parent="1">
                    <mxGeometry x="334.25" y="-41.25" width="20" height="370" as="geometry"/>
                </mxCell>
                <mxCell id="27" style="edgeStyle=none;html=1;exitX=0.5;exitY=1;exitDx=0;exitDy=0;entryX=0.5;entryY=0;entryDx=0;entryDy=0;strokeColor=#000000;" edge="1" parent="1" source="11" target="22">
                    <mxGeometry relative="1" as="geometry">
                        <mxPoint x="497" y="270" as="targetPoint"/>
                    </mxGeometry>
                </mxCell>
                <mxCell id="28" style="edgeStyle=none;html=1;exitX=0.5;exitY=1;exitDx=0;exitDy=0;entryX=0.5;entryY=0;entryDx=0;entryDy=0;strokeColor=#000000;" edge="1" parent="1" source="11" target="23">
                    <mxGeometry relative="1" as="geometry"/>
                </mxCell>
                <mxCell id="11" value="Bash operator.&#10;Run dbt" style="shape=image;verticalLabelPosition=bottom;labelBackgroundColor=none;verticalAlign=top;aspect=fixed;imageAspect=0;image=data:image/png,iVBORw0KGgoAAAANSUhEUgAAAOkAAADqCAYAAABHo2JNAAAAAXNSR0IArs4c6QAAAARnQU1BAACxjwv8YQUAAAAJcEhZcwAADsMAAA7DAcdvqGQAABhTSURBVHhe7Z17sFXVfcd/Xq7yulFywSsCihAvtQziZIqFzCQdW6RjYFKSP5LWCLQ40wd26ig2jpo4k9bW2FqRSRtNmxnNiI9M/KO1FpIpISUxbaDSZEDDMGBRUsLjCldMEaFcoOt79t45+5x7Hvux1t5r7fX9zFw4+1yc61l3fdfvuda66IJCTHL8qMh//ZvIxA+I7NwmcuyIyLkRket/VX0tFHlnWGTRzeE/JqRAMDcPviFy4m01L9VrfB39n/r8nPsrIr3jReZcH/4H5WBGpHtfE9n+HZEfqq/DO0TGDgTv4wNfMjF4fUqJc+Sk+jqlBuTjwUAsVGIteUCIB0Cc29TcfGyFSP9sNS8nqDd71N9jR8/P0/tFPry61PmpT6TRB9/4vMih7SLjpqsBmBF+swunlVAxKCd3BQOy7LO0rkQ/MB4bHlce3QsiE65V8/Pq8BtdaJ6fixYH83PyFeE/MEt+kUKcm5QwN6xVH3pe8g/eDgzI8J7AulKsRAeROH/8tMjATcqAwHJmBPPz3YMiU6aJ/NYfqDl6W/gNc+QT6cbnApdhYH5yq5mUuFhX3k03mKQHBmTDepFvPyIyLac4m4nEOvdjgWU1KNZsIsWHX3+/yO5XRK6YE75pCAzGW1tFVq8TWaosa0EuBnGYuHc3cKPIpZeH3zBAXKx3fcnI/EwvUsSdf7pEWTbNK1M3juwVubw4F4M4SJQXMeXddeLEkMjFZ0Q+r7xLzV5fOpHCvf0rNQDzloZvFEyBLgZxjF+EXhryIlmBUCeOFfnkGq1zM7lI4d5+9ymRGQvCN0okLlbGq34TJYWKCL2SgLm5X4Vnn3tWm1CTiRQC3fwVkZlKFDbBeNVfTCaFdLB7kzahdheprQKNw3jVH+Jx5zTDSaG8aBJqZ5HCz//7tXa4uN1gvFp9bIg706JBqO1FCl9/9XyRG0pKEmWF8Wr1sC3uTAPm45izSqhPZp6LrUWKQfmEEuhixwQah/Gq+9gedyYlKs+s25xpHrYWKeLQHVvs9veTwnjVPVyKO5My9KbIR5cHDQ8pGS1SDM5DS0RmOmxFm2G86g4uxp1J2a/i0y/vSu32jhbpHcvCFxWE8aq9uBx3JgXzb/osZQSfCt9IRk/4dwDc3J+/HT5UEMQ0mAA/U67HH6mYG5MCrhUpD4w/5t2d6veB30tVBQow/36iFiHMuxTULSkGa9XUarm53WC8Wh5VjDuTAGs6boyypsqtT5hEqltS7Br4gFrNfGKqWrXPqiF46osiD94eTBpiHsSdn1YGYcMjItcpo+CLQAGs6dEDqeZaXaSICSb0hw8eEXeBkTCD60UX2AyRa4sGGYizaomhpFw2Q4l0S/jQnUCkUPVr3womrK/gs8PV/8FLIg98JljtiR4gzsh6orTnQgebSTDXcEoEDGMCQpGqgeu7qvbSewZmNbrAFGs+fHZtOzFJxeEIMRMQJI6qXHbJA0s22fGhpJKHFOWYntpg4nQ/Mpp4vMqSTTKiuNOHkkoeUri8PTKsBrX3svCRtAQDClftH59gvNqJeNw5W40Xxo20Z9xsqemvCz2yTym5ty98JB1hyaY1sAYImRh3pgOHcifwzAJ318fSS1biLrDvJZu4awt8LalkZcKURKWYntpA0y1JD8bM15IN5kyza0uM0SNz1CpY5X5d0/hWsonESdc2P1joE7m7JD9xFzgSa4KsnVNErq3v3UI6QRkmQf9ujwzOExl5P3wkuYiLFUfPwOokWCmtptm19b1bSCe4BCpB7V2JVE2m04fDR6IFiBVnQ8GquhyvInu9nK6tMXC14mASkU4eUIo+Hj4SrcCqxuNVV1zgyLVF9no+XVtj/Hx/UpEqn3jlOpHhg+FbRCuRC/zfSqCPrrHbqja7tj7tLS4a6A26SxCTXlTr3cUvx7cN32UQ7wW27awliLOqZwvZSIrzjoLsLtS85D6WYkxjexb4vPqiQM0Dnd2i9JZww0a9BIOzaY+9Gj4Qo9iYBYZVx0nru9UKT8wCnUFvCQnc3QgkCxCLMItXLEf3Fnq9e0ewYJR5vWXVgRVdoEKdFOfvNoqUsWl52LR3FaWXO5aouJnzQDsZzt5t7DhibFoecRe47L2ri24W+YaaSK/S9dVKylg0otGSAkyMW5U1vZaraKnYcNwo5sItai7cyLmghT1q0ftq+hPsR/fusm5qBzbsXcVceE5Nqp20qLmBnnB5WIYwZrRIATJPB9Uvh5RL3AV+UMWIZbjAmFQPPKvmw47wDZKJIaWnFBndOK1FihX0bzaLHOAKagUQ66ByOcs6vgUx6nz1xVxFNpC9v0ctdNBVBkbHpBFYsb/yBZG9O1mSsYmyupYwH9AuiEZ7kpwUpwK2o7UlBVD9b/62yDtscLCKVl1LRbjAmA+wBnR703Foa1BSy0F7kQK4OSzJ2EkkVjTuF+UC0+1NR8aSSzPt3d0IrNIsydhNkS4w5gP2mGILG+lMxpJLM50tKYCbw5KM3bRygU017kdJxUM/Ct8gLclRcmmmuyUFXD3d4sSQyMSxIp9cE7ioGbOKbcF8uHe5yIXxwQJBRgMr+uIRLWPf3ZICrp5uMWlA5NzFgVU1Ea9iPvz+X6iY66fhG6SBnCWXZpKJFOCYh8kzg/iH2E/kAps6vgXzAcd/kEagD+QGNOYFkos0Wj2Pbg3fIE4Qj1d1Nu5jPjBXMRoNJZdmksWkcbjn1G10Nu5D7NzaWAcll5R7RZOQ3JJGoP/wEBscnKW5cT+PCwxryjp6HegiY39uJ9KLFCllpJbp5riLThcYk5LH7mgtuTST3t0FLMlUizwuMObC1x4Sef0//Q6BNJZcmklvSQH+R1iSqQ7NLnCakg3mwvQPiYycCd/wEM0ll2ayiRSwJFMt4i4wLmVCgjCpC9w/oP7AeaAeYqDk0kx2kWLVYEmmekCsuJQpzb2rPt8nZKDk0kx2kQLukqkuae5dxX1CZz28T0jTLpdu5BMpWHmXyBCze5Uk7gJHYm3lAsOr8nGxNlRyaSa/SPELYudJtYnE2mnv6qBn99waLLk0k60E0wxLMv7Qbu8qmiLu/XWRaQuDZx94YmP4wiz5LSmANeXBZX7QygWGQAfnqiV/TPiPKg7m+SqzyaI4ekQKUJJZ8LtMIvlCXKy4dOp7L4uMRSmm4mB+I/5G0rQg9Li7EVhR71S/sNl0e71j+Kd+XJuo6UiUNOizpAD/40hJ05r6hw8CLTBZFEevSAFLMqSq5DiFPg/6RcqSDKkihvtzO6FfpACrDe+SIVWhgP7cTpgRKUsypEoU0J/bCTMiBSzJkCqA+VtAf24nzIkU1vS2e4L+RkJcpaD+3E6YEynA6sOjVoirlFRyaUZvM0Mr2NdLXKag/txOmLWkIEoi8agV4hIF9+d2wrxIAY9aIS5RQn9uJ4oRKawpj1ohrmBBsihOMSIFPGqFuIAlyaI4xYkUsK+X2A465SyyoqBYkcLtRV8vDmMmxDaQLEKSE/PUIooVKcAq9cHJTCIRu7AsWRSneJEyiURsxLJkUZziRQrY10tswsJkUZxyRApryr5eYgsWJovilCNSwL5eYgOWJovilCdSgNWLm8NJWVicLIpTrkixenFzOCkLi5NFccoVKWASiZSB5cmiOOWLNEoi8Up3UiQlnfyXhfJFCrCa8bxeUhQ4yLukk/+yYH7Td1KwOXzVVJGZ3BxOCsCCzdxJscOSAqxq3CVDTAMruswNNzfCHksKaE3Tgx5oXJ5EkuOQFQX2WFJAa5ocWAQwfZbIwe/Wn0l7kNH9iN010VbYZUmBj5fRpmXnJpEHnq2fqA4PZNt3RB5bIXIdvZC2oB7/zBFnEkYRdllSMHlA5NTx8IGMYouaaE/varzyAJMOzy+qCfg9Noa0JOouckygwEKRqkHkhU+tgUBfVgJtV4DH2H2fQm3JabXwL1ocPriFfSIFC1XccII9vQ10E2gEhdqa9/cH3W0OYqdI2dzQSFKBRlCojTjs6gI7RUrqpBVoBIVaZ+SMGo+B8ME97BXp4Dw1uO+HD56SVaARFGrAyElnXV1gsUjnq2D/cPjgIXkFGkGhipyjSM0A9+Ssp6UYXQKN8F2oVy4IxsBRLBapGlQfu490CzTCV6Fi/sxRXpnDMHFkE6YEGuGjUB1PGgG7RYrBxSD7gGmBRvju+jqI3SLtxwp4PnhdZdCLW4RAIyKh7vFBqGr+1OaRu9DdLRvsXkGzfFECjYBQcToBd89Yj+XurppIIxW/M6b/6sZm+SLBUZan3ggfKgrmD+aRw9CSlgk2bJc5gfCzb7iVl2dZDkVaJjhRAXtBywQ/nyc7WA1FWjaICTc+Fz4UDH5u1WPSXgsWwpzYLVIMLga5ykyYIvJPTwYnUhQJft7DK4KYmFiN3SIdHlJ/VNzYw9V874zIn32qOKHi53xivopHfThqRc2f2jxyF7q7NjBpQOTCB4sRaiTQxZ6chdQ7VnlkFKk5MKEm9IcPFacIofomUHDJRMakRvEt82hSqD4KFNiQQc+JvSLFwB7eET54hAmh+irQiEPb9S96BWKvSPepQR3TFz54hk6h+i5QMO5KNZ92hQ/uYbdIez0VKdAhVAo0oHe8mk+vhw/uYa9IMcF8SRq1I49QKdA6jieP7I5J2a6WTagUaCOYRz9+Ov1CZwl2ihT3mgztCR9IKqFSoK3pU2OyXc0rB7FTpBufF7mU7WoNJBEqBdoehE60pJqAm7vzBbq6rYiE+uiaoDk+mnQYMzyvpkDb4rDLa9/VhxseVxPu6yL9M8I3yCiw//PUseBcYlwRiXryWCVgNst3BicHLlgscteXwjfcwD6RPni7yM/epCUlZti/SeTLBZ4npQG73F24bLtfoUCJOabcKLLp+fDBDeyypHcsC18QYhDHrKk9ltSHUwKIHThmTS0SqRo0Jj5IEVx6uci3H3Em02uHSNffzwuDSbFMuymoJDhA+SLFaoZVDasbIUWB5CSSlAizLKd8kSI2QIxASNFcNkPkn//B+ub7ckWKHt3NtKKkJGBNj6swa8P68A07KbcEw5ILsQHLSzLlWVImi4gtWJ5EKkekTBYRm7A8iVSOSJksIrZhcRKpeJEyWURsBNb07UNWdiIVnzhisojYDG4//6pdSaRiLSmC8+GD4QMhFnKNfUmk4kSKZNHTa7mZm9iNhUmk4kQKX38ak0XEASxLIhUjUiaLiEtYlkQqRqTYhnaF8vUJcYWpc4LwzILtbOZFiiD8JzwShTiIJUkksyKFT79BrUZYlQhxDRiW174VhGslYlak2F0wwGQRcZj+64JwrUTMiZT9uaQKwJoiXCvR7TUnUnwo7C4gxHUmzRD5j38pLYlkRqQ8P5dUiVpJ5nBpJRkzvbvszyVVpKTN4fotKdxc9ueSKlLS5nC9IvWlPxcXJvFUCf+A21tCX69ekfrQnwuBzhwMbuc6oNwfPBN/KKGvV59IferPHRkJrs97cLOK6t8XObo3/AapPLUkUrF9vfpE6kt/Ln5J0WW0i24W+euXRG7/YrBZmLG4HxRcktEjUt9KLr2TwxeKyVeILLtN5MUj6u/fC8RKF7jaFFySyS9S+OaPrVBW1KP+3HFXiuzbFT6EQKwr7w6O3jh3nC5w1RmYFYR3BfT15hcp+nN928zdO16J9PXwoQnU0NapWPUXLjCvc6wsCO8K6OvNJ1Jf+3Mvmdg5uxd3gVfeRxe4qhRUksknUvjkPp6fG08edSIu1tNv0QWuIgWUZLKL1PcjUfrmjY5L2wGx/u02usBVpJZEMluSyd6763t/LtzX6bNEHnoqfCMhWHGxwCHZhlieW/mqARZfQ+f1ZrOk7M9N7vI2E3eB0bV0cAfj1Spg8KiV9CKFJcCRKDw/V7m880W2Z0zBQ6zoWvrDdSIXn2e86jpYtA0dtZJepDwSpc6E/vxdJ7CqD3+zHq+ycd9dDB21kk6kvpZc2qFr9Wx2gdm47yaYDwaOWkknUl9LLp3ou0qJdEv4kJPIBWbjvrugr/eHG7WWZJKL1PeSSzswHvAu8rq9cdi47y6wpkcOaC3JJC/B8EiU9mQtxyQBKzJ+4c+sFbnqpmASEPvRWJJJZklZcumMwcxezQVG4/5DdIGdQmNJprslxUp+61SRa5eGb5CWwJpCRHBTISwTxBshBuaJ9F8dfoNYyaEfidy3IQhfctDdkrLkkgxY03eOG20Pa8gCs3HffjSVZDqLlCWXdBS1Yz8uVjbu2wsWbg27ZDqLlCWXdOCXUuQhyhArG/ftRsMumfYiZcklG7Ud+3+nvaDdllYuMLuW7KG2cOfbJdNepL4cLGaCmb8m8txa45uBG4iL9ZpBNu7bRM4wqLVIfTtYzASzl4o8uqJYoQKI9e51bNy3iZxhUOsSDBsX9ABLNuasyOeeLPz+kBrxkg33rpZPxrtkRltSNi7oAyvoe2dE/lK5oTkSB5mJu8Bs3C+fjHfJNIoUE4l7RfUyaUDk7FiRP1lUjlABxMrG/fLBop2hM63R3V1/v8iOLXSLTHBiSP1xLCiZQDRlQRe4XODJpOzzrltSNi6YBRZVpog88Jnik0lx6AKXSwZrWhcpGxfMA6H+rxLEpmfKFSqgC1weKdsFY5Z0F61oEZw/rVbSfw0fLGDU3lV2LRkH1jTFIXZBTIqM08avM2FkEnQBHXpV5J5nA2GUGZe2g/FqcWA+INyAN9OFQKSsi5oD8d6x3SK/cbvIyrvsFGcztSz/+qAtFF1nWPmJfhLWTXtqK+fQnvCRaAVxHjJ56P7BiumCQAHj1WKYlOwWhJ7aqtnLlVIrsJ6I7xDnIdWObKqL8Kwls3S6nS9Gjwyjfje68YhkAOKMrCdKHK6KMw6salSywSXJ+1iy0Ua32/lCemoZJhzyTPIRiTOynq64tknB5+FZS6Vw0YU1S7Nd2EQC4lnbKljOJMSzwDxrKT9PbAxftKZH5sznJuEswOVDtw7S6FVxbZMSd4G50Tw7iPE/0v2Qsh4ZVCvhiHJfSHIi1xbZT5eytrqJi5UthsZQIlWW9PTh8JF0BNYinrXNeVRjZYBYWbJJz8hJkcHue0t7ZPKAGtgx4SNpCawDCs8+urZpYIthOs4lE+lFF44duSCrporM5OHXo4A431Vxw9yPBZnNMk5XcJWG5JLy1thy2pouSSOgLKlyVZao4J+BfyPNJRUKNB3xeBX1VVhWxqt1EiaNQNC7i1rpnWq1w+FZvoOJ9NZWv0oqRYA5hmNkTqqYFWfR+t4P/IZatF5QC1iCpGPQagQrcYvn1hTixN0dVeoWsgnMsXWbA8/E91MMYUVXrktcFaj3Ay5arCbq8fDBMyLXFpfrVLFbyBYiF/jhb/qdXEqY1Y2on3GEQP/TU0Wu88jlxYqGhMayz9JylkE8ueTb/tUECaOIuiXFKoc4zAc3BK4tVnEkNDBYFGg5RJbVp2YIfMZVd4cPyWjc/oI6V9/46g4UPlfk2uIWZpRVSPlArD40QyDng0pKyiaYxiM9QVUzvfjFo96J2JuW016q3LwP7y3DFf2jRQpw/u4PXgpuCHMdrF6+7VKpAlUT64Hvi/zOn2fy3lqLFAOEE9fHXeNuPatWUtkalJZcOVuIjKYKyaWhN0U+ujxw6TPQWqQAg7N8qsh8x9xeiJOtfNUD89HFw9Fwc8GH1BxEaS8j7UUKsILdu0RkniNCZdxZfTAnv/YFNfmP29+5BINxTv1/ookjhyfXWaQAJ63jns25FguVcadfRC4wrrk/dkhZ1jnhNywCAv13FW69nD5R1Ex3kQJbhcq402/i8apNySW4uBefEfm80o2GcCuZSIFNQmXcSeI0iLXkbXFIEv3yIq0ndiQXKYBQH1YDcUOJQmXcSdoBseLiMdyxO1BCJvjAKyJL/jhzFrcd6UQK0Oxwm1qtfqngQUAjNtwZ9tmSbhSdCY6HXZoFCtKLFGAQHler1S7lYsxYEL5pCCaFSFaKyARHnp3BsCubSIHpoJ1JIaKDaJ7qzgTDsxt6vRDjkV2kEc1inTAl34oFcQ7vEbn+40wKEX3omKeYm6eO1cMuNMoXYDzyizQivmLBBRg3kC7Lhr2dJ3eJfHh1fQAI0U3zPO27qn1uBaL8v/eCc6lPvSFyw62lJCz1iTQCg7DvteALWbaJSqxj+kR68TU2GBB8eHBqWP1xPliZcCjTQvVFy0mKIJqn27YECaZL1Dy9cE7N0cuUKN8VmbYwsJL4GlSWtyCr2Qr9Io2DgQCRaI8PBdf+Rx8WguxXg8OEECmTaJ5ifg6r1/1qflpkLMyKlBCSG15MSojlUKSEWA5FSojlUKSEWA5FSojlUKSEWA5FSojlUKSEWI3I/wPlV0+41oY+dAAAAABJRU5ErkJggg==;strokeColor=#000000;fontColor=#000000;" vertex="1" parent="1">
                    <mxGeometry x="480" y="162.98000000000002" width="33.9" height="34.04" as="geometry"/>
                </mxCell>
                <mxCell id="17" style="edgeStyle=none;html=1;exitX=0.5;exitY=1;exitDx=0;exitDy=0;entryX=0.5;entryY=0;entryDx=0;entryDy=0;dashed=1;strokeColor=#000000;" edge="1" parent="1" source="12" target="15">
                    <mxGeometry relative="1" as="geometry"/>
                </mxCell>
                <mxCell id="19" style="edgeStyle=none;html=1;exitX=1;exitY=0.5;exitDx=0;exitDy=0;entryX=0;entryY=0.5;entryDx=0;entryDy=0;strokeColor=#000000;" edge="1" parent="1" source="12" target="14">
                    <mxGeometry relative="1" as="geometry"/>
                </mxCell>
                <mxCell id="12" value="Extract data&#10; Python operator" style="shape=image;verticalLabelPosition=bottom;labelBackgroundColor=none;verticalAlign=top;aspect=fixed;imageAspect=0;image=data:image/png,iVBORw0KGgoAAAANSUhEUgAAAIgAAACECAYAAABLeGMpAAAAAXNSR0IArs4c6QAAAARnQU1BAACxjwv8YQUAAAAJcEhZcwAADsMAAA7DAcdvqGQAADaUSURBVHhe7X0JsGVXdd1+903//aH///27Wz23WkOrATUSEkjIlpgNGBlBjMHgYJHEwWAgcQonsTMU2E6lUklVsCGpwoBTmRyoxGA7UIEAYZYZNCCBQHOr1VKru9Xjn990371Za59z7jv3vvv+1C3yn/J39/n7jPudu/e6++xzh/cKBw8ejGWDNqgPBZZv0Abl0gZANmhJ2gDIBi1JGwDZoCVpAyAbtCQ9x3cxODR3dHGE/22kUCRqIbWRFiXuNLVPgX34J+lvuTZkiHVMPL2CSSkUkAmqqCuKFMtSCMDZmAgdXHqOASSWWI0dSRQCBB2CoC5xeF4K5c1Sqm2R0vgOKY5fIuWxreBbpTyyWQrVGtqHpVAZgo0rMDIMHJSMyKgDEEXIhMBUC6kpcasOXpfOwgzSOQnnzkln/rRE889IZ+60xI2TmAmBMgxZFSmUwAmiwuCB5bkBEKKCoGi1AI6GxO1pKU/sl+q2g1LdfVCGtu6X4tgWKQ5PipTKEuBMjwqxFOIAvEPbY1wonVAzUgDvgAdhJGExkiAqSieIJYiLsHMsUVxSbsYDPPgfx5CDeXSaC8DkrLRnTkr4zOPSevrHEp79qcTBJgmKQ+phFCwDQoMPECwZUQeGbZ2XyuZLZfjAzTJ22UuksnWvSBVeAUYlAjptWrEhBTiVMAgl6AQwekcK4AXwjvII5Qj1BbSTAxS5/UzZ1RNkhQj14BE9RzGAAypLGEEe5tc++6Q0H/mO1B//NrwalF6sASj0UOvfowwuQHC2xm14i6gBD3G5TLz4Nhm94qVSqI0CAZG0O4tSaMFAfYxKY3ZwJgcd8ABl8AJ4B0tKAGN3FCzwEuAcH6xCTgDesrwQYZ6VKjwIvNb0SVm89/PSPvJtiQtjWNIYt6xvbzKYAAE4otYcloqOTNz067L5+jdKuTYujeaMBADFcmf8ysBBcCEPHmAZ6VgPQU/RsdzJ4fjIykmBQ+UDZFivWO4grimWh6R+9C5ZvOOTOAZ4surYugbJ4CyGCQEcjQUJKhXZ/sZ/Jttu/jUpBWWpL07DY8B/AwSwBJQOrocHY4LDVMoLzFmjwmpo7oKDRtdxCThQxxhDDci8lcPxnhz2pZxecJBzOCIcLoMInCOAuLrvxTJ+64ekvGkKG6lncEgMgtcn8cgHimIoOSi15ZLX/D3ZdPBmhBWL0uigTg0Fs9EgDDRpYLj3oFQCL2i5azRjVAJAz2yWPY8QQIABB+tsXmWbcXlyEm5B44OnKwv1IXZF9WmRsV0y/JrfkfLm/QDNWfWK65EGCyC6tMzKpmvfIiOXvwSBaVOaODNhgq6XwA4lKHObOqSBYiEGOLhzwe6hg8Awa1Rk1JM4j6DBKbyGehsaFMsDqjGO2xrk0Z9BbFaOLlcczzF2bMpzqSxwahyyoua0FLHFrt3yd6U4NIl4asEc4zqjgQJIHDakNLpNxg7eJOVyVRr0JjREEl8UpVitSKfRkObpw7J4+C6Ze+wH0jz+gIRzZwGSioLGGdUYuxuLmJ0L4w8a0hm0Kz+AYZFFGQDxvAzHtxw4MmOWkhW2FqU4sUeq170N2F/Uay7rjYpbtmz5fZtf9xTDe4wdfLmMXXkTdokAQtSEorvgKI0MYbd7Ss7f83k5961PyPxPPisLj/wfqT/2fWmee0ZKw+NSmtwNr0IPga0v/ha4FQU4GHdEWXAQfF5Q6m9ndQnBqhBgTAteipxjYzX+0uBw9TFAAqlSGN8qEeYdTT8Fbzdkj3Z90OB4EG5ro3kZ2n6FFCsj0owZd3QVHlSK0pqbkdNf/5TM/PUn0RfLychVUhy9SuIidjhH75QzX/6I1J+4R6QyZOISjU1cbIFAkZ7BGZRgAAhQUs4lCI2YiAUHxgQYq3GxLjn0LisEBwEG1VN6GFN+WapXvAL9eAtgfXmRAQIIFFnahMh/iwgCz0Kbpy+UaQ3AS9ozP/qyLD72v6Q4eQB9q1A8o1UYj/dHqlPwQC2ZueuzEi2cg1HRrgbEWazLBcQpR38HDgWOAYMflLIzebrdgMSfUwoclAl1E2gm1rEyefUWO7PC5A4pbAaYQyw164gGBiC8yVaqTcJTjErMy+SwBXQMQ+Oki7FTqS/IwoPfQGy6F73RmCEaMi6UJDx/QhrHH9FAlgbUaxw2KIUl2VOBZYxPo6fB4UBBzmsfLjg17QZonJuZgwEFeijgfFk6cR2D9jY8BwBduuT5qKtz8LqhAQIIlMmLSvQeMZUeGqNS+fAQUf0cPMN52KXkLNRLvMsKxxOee5orP0ZbcGTOeH/nkrdjcWU1OA1vvYMCAVyXEHomgwH0zQea22JziQJ6JZjYAW48ynqhgQEIqYgdCLRLs0LRUHZi1AghCraOwXKKhSFwxAg9ALIYBusFB8tumTAxA/o4j2K9QMQ5WK7gSPqmZVEGZfUDGjJot5yYrmxCGcewjq6JYHYDRMkteJ7hniEQKRZq41LGFjjmGdhPwXwGBJYoT+4CyPLB4QeSNLAuZfij/1AXQWXczTDERMf0mBxZ3aCVc7ZYUHnoC3AUGJSikjMOSkVzI28DIKunAi+x46/mGTd4hgilJaWhERk+cAvWj1nEswRCmvRBoQ76Te2TKnZCcavdNagztOW6RNA70IjWa3CZiGDkSI1Oj+Ab38wlD2jOG6lMqJsy1SNxu2wv7+vdY8xRL7hj+VxPNDAAIREeMZcG60ESo+Iw4nZTxq5+jYxc9jLkEY80ARTe7Q2byM+JNM9LefMeGT30eikOT8FoDRjUeIXsdrYLCqjHcl1SaEi1N7kByVLgcKBQ6Z7MDq+9cFdmr7FoD4DeIoR/1g0NFEAc8YmxBBxW8SG8RmlkQiZveaeMHXqTVLddIcHwmBSHhqUCYNSufJmMvfiXZeTKm7BRAGDUGREgMLQaDnnwvEDSgMPuWGw7tj9ACiQohizQDBSU+0AzcQbmjPiC94f0Qp0DBwVwWWxDnnGQ64oG5nZ/3JqXytbLZesvvFeqW/ZKuz6vRkyMat211GoStZrSOvGgtKdPYmlB1MD45JLLpTy+QzqLszBmmJzxkT7zQXDQIxB4NKQBh/McMXiyneXn2PbkRh/rddkzY3uBhjlAti4rWc+BOUgbOV4Znjshza//G+zUGKzyQaf/9zRAHkQXGLPEWMVnwUFlx4uL7CXVXYdkBMvJ6LWvl5ErbpLiyLg+Q+qDg16IGjDgYNkDhz37HVdwZLyEuhBwXUroRVSWWYJ8cJirtGjsWVZQRj0fRjKPLuJcZVS8johHOXCkZzxA0UFA13NGciGPWhI369Jpzki8sCDtFuKRpheUWnAQFKlA0y033GVAntuxkCs4/L6eLDW+rTftBAvyChJ6JeSL9rPcPCnPepQI9RHjqnW4xAweQOBBeA8FJyaUb89+Kh2FlEFgqCV3Gc7glqsXIDDwEQSIv2NJGz9Hlvbz27ncIE+vg39JO+eZBQe4fg48CFZD9N4IUi+YVMGYOlRvnH0CDtQRMGooY1gUeg3K8Wo8tFvu7zLWsmNJPouxCINoyiPoAGZdYWh8ugjUQXgXHCib+ROaBAf5+qEBBAjOyaiIGI47gpLGcroz4MNA4J1i0Zyd4J2kn3ldgeP0GVEMcn2DZAxlFGG0WKKkng8YwbI2hsgFmgKVoMB4GlhjCdTZJTAAEJLnWQEQA5gMOEK2AVT2CNcTDRBAGHrir86Yz24QHDxzCQK+pAT1guutd3BoHvW8L4N+ZRi6hDzv4zDxfg3r+Caclg3X+zgYU0Q5JufrCxU+YASeBw71OgCHXdYUQDA8AcDgWbkDB1StY+ApMIy+C1MEYJzn47K2Dj3I4Gxz+fTY0KjU9h7ClrBm4UJ18gorO2hRyyaLM9rWsV3Vnr2EjSKN4kyS5FHPS/bByBYp770OO6BJWBRBrwKF8QUAocsZgYAxDhzkDJq5TFkvkQIHy1yA0I8PFpEbwMFzlQBKvpn3rT8COEcV+OuBBue1Bxg3jrETgevn7X6f0uccSzw/07VKPUfKipx+oLg9L+Wd18jwtW+W0ta9Ejaanhehx6DnQF7BQtA4YwMM3LG0wFEGpLrg8INS9vN4oTgk8cwJ6XznjzcAEvMxf5xhTPrKoqm1PGswb3qaxdhlZ2xl5Nteyd8tMGf2L12K2+elvOtGqV33N/T+TRwuGOMnRqXngGEBkm6AbJYbfbcGx6bxxUrAAQ9SgAfpwINE3zYAibHMtdoEnp3QkoQjwBKFKXBlxeqJz1vi2FdDPzOA8GYZ74sIFY3JFyqbJKgOI2wYwbqPI4t5REwAgHdwZuuXJQog5+Lhk+lpFx3Vm6FeCf5qw1aO6S42qMN8g4ndMnzo9RJM7hBptDyjGg+SBoeLO2BU3mthfAJwaEySBQdBo/GLG4N2epDZkxLd8ceoG4EPLMrURFWmJiupueYR28NOLIsLbTk7Hcr5+bYCpVYtSLV8YWB5lgGC5aDTNm/BwWVWLjkgte0Hpbx5p943KVRqUC6DQxwBZmEMy7zhOjEuLcq9OtPZmNRUaD+tUaDZvq4NZZgMfbvyCQasVvyrdSZvBkQcCKMG5WGRkSmYytwx1liD21ik5OznxTrP0N0dC9p5mR8pQp++4FAOD4KTJJ45BYB8VJrRiIyMVuUtt+6Rt70RyxvfK16GeIW5iX7TM205emxe7v7Refnu3Wfl9LmGDNeg+/LaUPLsAYRnTXMBwAhk5IqXyshlL5by1G4pjW6WYmXM7hp0S4KzCwrgNg9bQHPJGcYE58UqfZtez1ZG/DwzUcez1HKzdYTS8Y9ooSzdEVhOFxSxL8bytKIs7nTaVibrec0DQrTMdgzEf2xzQ3gRHEeIAFmXiSw4WEdQ5ILDtDNuaaF/sSe4NTzxQqWqBqnRdz4qDQBk06aqvP9dB+Td7zkI77WidQbzRsJnNNH/zNmm/OTh8/K5Lx6Tr91xGuDpyOgwgGh6rpieldceuJTE8BpDO58nm29+p4xf/SoZ3v18KY5u1S0oz9SQ37PB5zZavO3eVGWFnYY+/CNRQ0I+BBQ3wdFGI6EfQcf+IZQvbZTBQ8uBRum0WvxwcD40RNmo0zH8khgYxcpqkdOAmAMNKeCsZztlFawsnPcKEjUq270dS0zjo2/iBehJMuBgP7dTMRw2hAF7wAEOxWCeCxI/+QMJ44pUKyV5yTWb5fprp1DPkwbn8QpTqRTLpomSXLFvVK4/NClDWGoePTwP7xJKpYrPtnZaCZlT+CJS1OILQHUZv+YXZftr3yebXnCLlCd24IyFksI5GKMFA9MgBDwUyzifJzDsZK4RoA7KNDsGc8Zpo1Vq6qaZ5brWJwaAMIw1V1TpIWgAeh9jCC1bGfzsRBb+ZWWhSr2Ofq6OtfNz4EAnHck2O17n5IGCSwvL3TlxjkhuTvRyF4WgUE0AE5dI/bqLjuzcWZUPvGu/vPf2S2XrlorML/CgVk5Uw0UjgiOQpkze+A7Z9rLbpbrtcmz32jiBFwEIuOkQCrQKc0AgV62xXpXmwME2axxnCPxVg6ItT45fb7hZZszzGjAfZLV0+cgfkyfLXGY38zDzQ55ex4GMnkINjf4OHNjmOnC45ShZltgObuZkFXfBBEBo3ARQuLzjAMrQcCDvfsc++ZVbd8mmsbLUm+y3MrpoAOGFLC4JEze8Xbbe9FYp1CYAmGksGzRSV+F9DQFF84xK3m3VM5J/kUcdtG/PwqXluHoU1ADmBhzlRgwzwWnslctiP352dzmgPDMdLiO6JDlwECw4a7PgUDk8Bntc7vhQSdVdIDlgWM/hwOEDJYykVBH5wO375IZDE6jDp3M5WgFdHIDoFrYuowdfKVM3vkXioIyQYAYeAxNRHa/AEImi0aaGQF452ymHHoDclBM5DnyWO++gQLOyGCh334BDPa9VcIz97H5zUllQkcYi+OeWKI07uMQgpa51oJy91pHIQb/UE2kX7D4sAFJew8snQLHAAUgmpsryG7+6W3Zsq0qjybbl6cIBgg+PwrZUNu/CsvLrElRHzFIDHbTUqLQMkjVAriFYz7OKOxj074KDyuRQY1hYxZ7NAAo5DUMD0XgEA3OWo5PKMuAw3BnXeZDUnCgLc1BZnIuVlXqh247v7ljoRiDHeRK0cTwhlZVj5m/mhIFWeWslAoBgsO/QJGBw9a5sweHKCN5vuXmz3Hz9hFSrRezOWL80XTBAeAGsEC/Klp97h5Qnd+uXuOlaT0WCG2NDVf0MYetdUJo8xgeuBrHKVSBQx1CutgNMps7ra7n5zBxwOFkKMGcvBzRTl5YFBSsokef8UJfeztox6GJkdrCdXXpOCqo1kzV0AgLIcgAgzwJFy7ava8dk33HbdpkaLwMvbF+aLgwg+EDGHrXdL5JNB35Owua8BNgWJuCgARUIXaUYpXoKTMBBI9gzzLXRoA5QlqMBUljv5Bjv0mMIr9wjy4ITH8YZ6X90gFjUp2Tx2oWdH0CRAoeTw75oNw8Ymen3ndOFgkON7MDh8g4IXkr1yZSbHbnu2k1y6KphA+ZlYpELAwgUJvG8TF5/m8TlISm0mmlwUJHu7EuAAOVZO+vSgTpkMBO6caNUjk8Mira8WKErB0CxBklAgwb1YpSxAlmu3sQNVpYa1bSjUuOLFDjIWUa9H5TiD8Z7c7pgcHCcM7I1tBqdhnXcr8+Aw8+7VBJ53S1TMjpSlPYyXmTtAMEHRVFLKpOXyfC+a/RyOhUH1XQVaBXsK9ookIYA5xVTKhN9TSBoxuu0ljFoSg7BAj26N+AYoPIyl365zApkuXrKhBA1JnqkQQVDo7F7bAQHdyzgPTuWRA5HGBOvmdSovtGXAIADStar+G3Mw4u84qXjMjFe0qI29yEe9ZqId0gKUVtGDt6i757wKydbGUXlGSLVzrMSWnSP3Jl+PPuWkeMMZzkN6eIL7lRakEFvtSJZmXqz+8FcWEegoL67BbefuQQ40nJQxjhFygoptn1pM3NviBAjd5ZkWgYA2XLSz9YhttqyqyovuLyGeWJpZHMfWjNAOPm4PSOj+1/EW4kJOPAHE+gqKjEEFasfxwO27eD69QvqimkUDiWHkpaSQ8VTDjjldcHhgtJVyOJcKMNylclrN+y7kudJ8Y+j8+WQrxQc6EcDhvyusoLGB2W9wUbD2pQY2uOazwNDTjnTdiNikWoV8++wPp+o4TVRjK1tcXyPDE3ugcfit/04nZizN9eoUJjGGPQcqDf9aIxuG7mJJSAH49SzcHyOHO0Ljk7Ke7ezrLey3Jwowxk1R5Z6CganFggaeernUg4UpoDBWYc64/nMuDw5CqqVEi3RquPzDKiKRZHJTRVT7vEO5LbOeZPcpce1uTLzth9O6pccGlWARKzqQ2sHSKcpQ1suk7g2qsEpla1K55lgifkeQ/CAqXQiCgaDltPKpRw1IuSoKALEycn0dYbwyj2yOM4IUjKGzukL7up1fgAHlxLOJfESbMO8MUJd80UDB2cII8b1c8jywWnR6xR7dw9hLhnDat5yBwC/PlvOAxcTQoID+6oytQkRK8ralEM44jWQfhgC1J0HcWBUulEkz3Lnxrs7loxRqXQqmR4Bp6P52knbliPHcMrB54D37g7wWeCpHUsfWd05URbxmZGlc6T3wPx8cFAOym7HwvkvKWdV4ADxTi5f9jp9VOLAfP3D+GhR9u8e1iugKcO6PAHTU58HokxeyxwrUh4P5MB+7D4x/35xyNoAAorbZ2V4+wHkYLSMIcihNT3bjFGNItXd419yRuoBmUZ1+zlyWDZyjGEozywbyMMQuTuWPrK6c8qThT6Yj4KWhnbzpByCIxOU9sqBeB7jKrGBESJFfHKjLvGZ+7F01aRYLuqt+ont9CDW6DSy8yK+N3FtSZ7G98vkvgxXNldhDx3g9RB8fh+E4LBWT3yONKhM6eX1MGr0GMIprje6h+mcIjEpA568fmk5yp3BwfXshV7p5rs7ln6fmZaVNydduiiXDxkBBHaCCrZUUOqNT8nhWKiS8FeDr4YUmAG8x6MijbPSisvwHiV5xU1T+GzKc0a1yQdHLhi8fG6bHcMEb3noAABZ8p++S9PaAIIAtTS2XQK+DsAHe1TRRuHOEOSqYKs4VSDLrMdZah6cIaelTX2PHPR3BjCKRLvlDBC7OxYDtGVl6eFm5oS/GpcoEPAx0J/ZeqMddQyoU+DIk8M5rcl9oD+8RVSfkc7j35C4CH0iAN55yZC8+ue3iLQh0xlWjeqDw/KkzS9n+mkbPUYGUJB/2Z6yPo7YL1BdE0D4VU7lzfvgGvkIWzsXHHpWQXF6VZRrOxRt4g8bd+h6T7tDxfQC7G/HJQb1QeHkKCiyOxYDtERWHjg8GcmcwDVuoOfwg1IFDORgzowvkO2CIzMXfBiwshZwgPRtQHiPo3dJYeaoNOOajCD2uPVVl8im7VUTf7jloWeZsCkXDF5Z8+ijWVdGYh7HvWOqKJdsRqAa5AeqawRIU0pTe6ETRsDmbOJZBbUpT51VVGAWHLYtFdSpgk1e5WQMwb40RC84yB3QOI4KM8ZK5tTHqF1wICXgsHNSVOA/gYf6PDlrDkpJfFC5NCTRMw9I/PBnpFPdoRA4eNmo3P6WXSKL3p1aBwK1YAYQmicAXN7WJ8DJa7N5xB3BaCA7t5WRB1BRmyVad9UUd+alunkHFBOrgujmwVRhPQoEOLo7AoCDALJnolGuKZvrIZRjPIGRY7gzRAIOZyjLVRYNqLJpe+TUi5ixRpbta2WRq1/1wYF/Kod9Md7tWOiFCKpcOWsBR6miv5EXnX5Ewh/+F4mKO6XRLsiWyar85jv2yMhmXv/IMayf72mzgEjqWc7KsH2SMhJsuHdHGT0vpgfpNLFF2gYFERQs82yjInMUCOWjwhhRjc9+yLPOgsUsB+zm5HAJIjgMWHxDJ4CyY9VLkKsMI6u7xPhAMwDuysJnwAhLbWfTQSnlcJwZv3pw8Niwna2OQH4k0Yn7JbzrUxoaLEZVqVVL8vZf2i6ve4N5BycxLI2aMjK5B4aeNiY7xgdET5stAyB7tpf0pOOrE1laG0BAQXUcf827IkaB5MYgKUPwnKRRYRATnJr+vkET0CTcgCXxLBhvrnW4ut4xviwVoPX4dJ0T64230zf76fm43NFgBEWBb/2D80cLdceCwBHloGPqDYcMBWz32DBwmcR54DNKiCf4i5oYE88+I53D35bwzn8PcARS74xCR0W57Re2yj96/xVASxs2tMbLLhOJkf02W69trLN9e9q8svazecQ5u7bxFRTblKE1AQSypDCEM6FNRdMQxiBAguoEOeiHhoHRoBRz9jH+WB4cBAAKyhVY+GeudZBTJj49O8aXFZWkU6YXqUmhWtUXvfmGfgy3HlSGJSjDnRaQp4sPUF/GcfB3ZYJhJLShPkafgD9lCq4/aaqcywLaETcUyvxRQv6C5RKJoNAgHlvIxozE549J58kfSnTvZyR64NNo3yYLrSGpjZblrW/YJv/6954Hu8FwbmnJPfttPltO8jngcGBIypk8+NQEdYdiDq3pxanO+Yfk0t/+sm7RBCBxxtTvwrDGTQWlevYxxkAeBjZvyHv9LE9AAUAt9xtwqYd5KIuBeAFBH+AZ1+dhlDnphA3ES3DX/JUnwpZv3aniCXHvLTzlVFefvFU038ajTg1RTj9iP3TEUhw3FySee0bic0dEZh/HVnYTdisjUoejuGz3kNz2mm3ye++D58DxCJ/NsJ+l5IzoElmqrBU2zzGujczl2WbrUmVbh/j0oYca8ksfOAYRUc8beGsGyGW/83UcBozO35ill+CWkEZOzm5vx8JdDHjykC8mYh4ZZHxB4DjjG+7cOO9o9u5YXDuXCMjnl8jAU/DlpzbfbZ09JdHZpyWaOSYhDdOag+Kx0NPlK1GRaSV0CfW8GKI59vFV48a4un4yQGoraIffRtBZhPGHAc+KtGVIH/ObmijLC64Yk7e/aae86bbt5s059RzJYJvnH5tSYPDqs2Xf+D1tti4pIwEQR55oyut+C/pqRlKtpI9r7R7kH35DAhglpNEIAPUYXK/JPXDQO2id4f5ywEAw/VUKKwUHOGTrl7vwzuq5J6X9zGFpH7tPOmceFf15r+Kovu3Wifn97nDzCUB+VmSuTkbwQrydXsayt31rVfbtGpKbXjQpf/PNO2TrLixfDbgSdkwZ0uXJvHpt00qbd16DxLKt17ytS8pa4eVtAkCePtaS173naVmod2ToYgFk/we/hrOCxg3XBA5XH0B5PcYHj8FTP7fhvBBk8pewg1oNHuO8tE/8VFqHvwuA/BjtwzhLUY/58G33kVpJ30ctYSks8ULQ2mPyHFpabcQj36zn549vKsmu7TV54fNG5RU3bJbdV44IolMokgYGqcGcB+Efm/oZNVv2+6XayFzeJq12ecyhFMiJk2157W8el/nFiwSQaPoh2fP3v4SzGzEIXKYajcbDARuP4IxveD9wkJufAeM4u9zQMwAM+htw4NlfVCA44hpc9pmnpPXY9wAOLHVNyC6NyEJTZAJB32X7RmQnDEKjbN1c1VvnFYAk+8UzayIXt6iSkfdiGp/j02RkuCRbp8qyb09Ndu9A4FphzIblTq+Q0kBuPij7Rk4Zlcwv9+tL5vI2abVf1gqbt3Mox3L8WEde894TUr9YHiSaeUh2v+cv9CscwmYbQAFI9Mw3AeRqdix6v8NyxiX6Bhza8m/AFaU4PCKtU49L/f4vS/jU9wGwYamHFSmVivLiQxNyw4um5KXXbZFDz5uUcV5wghfSuGLVR5lDlMMtqALNplxj2aQ2wB/GF3rbHuVsv6WMmmojs0ZNyl675kl+2db1fIaXR3B/9El4kN86iTDuYsUg8CC73vVf9XK7hIvWc8DAXA6Us4xlZk07FoBEvUov0AKAo33mqNTv+7yE3DKWR2V6LpDL94/Ia1++XX7lF3fL1ddswQxxSNwR9HvIYU0EWapYuGX1HMx7iSzJW67klZWT/HJOnpRqIzBIruzaSH6ZeVuXV84DGM6hhx5pYRdzCs29u5g1LcpcXzv1GQmK/XYhrOfJS479AEHBJQj/yFGbgINj2bm7neW1DlQpxwcBHChIoVqWaO6cNH76NQkRjMYAxzMzBXnR1ePyvnddKR/67UNy9aEpcwfUfV3CRSEq1ia3jKQM4re5vE00iCv3jCHQvHKqzTNkks+Tn1PuaVtmXDGW2VlGk8auWVpb1FYcwhbytPG2WXAQCDS05XrBDMksQTS6DyTb1/J+QOO37/D7LxuP3iHh0wBHUJWz84HceGhS/sG7r5J3vm2/BER+4sYvFjlFUn2UzbLNJ202JW1eWbkdl9S78TwmtuWMcf2ybT19bVnbbH3S5pfZz+ur9SgzD7WdPBeiC+t6EbI2gGDdb587oVk1qPMGBAW9BcXSDYDrUqJexniEvMvxqZ/b8DyLaw9KQ/rrDa0n7pJOe1EWEXNcuntY3v93rpTXv3qXOfZnYzlRZdozPVfpLp+pd+WeMX7e9yDeGFd2BtWy35ZTTrVlxjlZPZ9hOeLGYycAEJRgmh5aswdpn3tKlwY1qAWFgoPLAZYFF5QaTrwQHGwHQNQzII8GdxMsAYeTxeWIAGPf9oK0Hr9TosXzqB3BwRTkb791v7zhVTvNfJ6VWMMpFlrzDaZKZ7vtk6f0nny2n5WleVfv5Ptty8jXshtn6zXPcazPa/PLaO/Echi7GO16sQDC50DaM8cxhxYMyJ0LDGoDyeyOxcUQSbvzKFh29B6LA4kDh98XPC7WJHzmMemcfUL41VbzDZFX3bRNfvkNu6XEiPtigiOlPJe3Sk7KXt5vd21av9QY1waeamN5qXGunB3HlB3Hsu2X6psjv9GRx4/zF0Rhx4sGEP74zewJbGAQqCIM7geOxKOAEyQKDgIBMpLnSdmH08gBBy+jF+K2hMcflKg+K2GhJkNDJXnLrbtl29aa0cNFIU9hLqkyrUITRXvlpJ9XTtWjb7bcV57lLCdtNmXzqXG2vm+bl0/62s9gHlvcM2dCOXYKOqcJUJulNQGEj+nH7VMSTp+QQhkinEEtT8ChYHCgsBzeortjcdtZ5LPgAA8gu4OdSzgNb9WpSzMM5IYXTsr12K0EJXwuj/OCCUJ6lGnzSZuXz2vTepv365dto7H6fFZS9ubV0+bn2S+nb79x9LzYwTx4pC0z8xzHzQRYhtYGEFJ5Slqnjggf6DXPk/IDMuCw8YULOtHJAwfriS0TvLqlKAU0KUs4g2C4MYtjCmS+HsvNN2yRzfrEFQ/0QsgqK6VMT8muvV/elZXbcX69tjlZrt2V/TZXdnn288vM++NsUpl+nuPsWL+v38+18cIdL/aVRX5wf1uL3Cjm0doAAqgVsLQ0Tz6KAgyr0CNA1E/kgsPtSPpvZ7HQOHAQYJhahIOIZk8iSK0jlirK2EhRnn/luNSGivZg10pOWVSeU6Cfd+22T5J39V6/VH1e2Y5P9bXjXb6fnNS4nH7ZOfv9Un1tHyaeWAQHvLfMdeROAIQ3E2GKXFq7BylWpH36sESNBUwJsYIaFyBRj0DjG56AAqDxt7GOsx4lwssKJt4IGNTxTmh9XvSrM+OSbJ2syCVb+UBO3mq5ErJKUuUB2Jon8xSYytvUYwTmM/00j7pkjE3ZMbnjbD4pWzm5bS5POct9Xqas4MBx02WUInn4SCiPn4SeI57c6JJDawZIAQCJFk5hN3MCsQIAgjOfy4SJKTgPAxYDDrtjwcelglLw7NbYeBG0wOdF/HI8PnQjoR7bxHhZajU+Sb8WgEBAojCCAzLUWEx+m03ZfJ5h1eA279cnbf4Yl7djsn2TvE3+vJI2Mv7x2zJjNW8/w9Uz6bKCxO70IDjPvnFnU+Zw/vHNz34aXbsHgdHjAMvMsQchvARQGEP7OxcTl+BD8Gelb8Apuuj+sBXWg+S9GXwCn/7id44X6T304FdD6J9SngOHK7s2JOa1zbb3tHl5V58qZ+WxbGUl/TzZqb6ZfM+4NpI3NtU3U3b9eGbxohxBkSwvSLOxfOveUJrQL+P9frR2gMBofIaz+eR9EoUNgJO/3MSJ0JwwuOW85N69x0LvQlAQNQYMPjgMeHiDzjxPgsNQgOnx4x+BBjGrIA60KVlSmM8aKEfp2XK/fgoAv0zu+pHbfNKWk9dyn35Jme0sgvfIsWOZ99tYTZtoM/4wz/pqQe59MJTDT/NEpR1R3YcuyIMIPEj7zKPSOnPUPN1FUDC+sMFnesfCeoKEGOLSYzxKChx8DFGPBnXuYDLUW9OP0DNRHlLeFVGVZlPWQH67y2t9pp+f17L9jGXl2fZUG8e5vK3PnbPtl+pr+zCp10By4KDXMBkkELzwF+9oyzSWF32w39Tm0gV4EBq6iLkEsvjod7HcMA6BoRkO54LD8G7QygmjLw4iAQeTehHUYftsHs7hwa2WrIL8QNQpWct+3ia/nOTRz5WzfbL9lGz/bF/97Lw21ru8TX45GWfHptq8vF/2A1G3tKgcC4NyQc7Bc9zxY35FeqRfVLMUXRBA6EUYfzSP3int6af1B4Jo/AQczqNY7u9o3E5F7/riXw840KZB1aoIykiUSXDkeI1Ema6fTdpm+7nySvJa5rgQefdZVna/cdlyqo1jwVROpo35pGw/w7Wp10Cd05kCwyXPR4zE8vlvteTYM+y7/JJ9YQDBB/Ndkbi+IIs/+SqkcbtrwaAgoOkNx1QMEGzZbIkhgnbUMciirFuuCO38gR2+H7tiooKoDAqk8hw4WMeyU5btp2Xbntvmyl6fpN6X10eGX58dl+pr+yV9WWYwast5/ZI2W+e8hh67LWtbRn/YAM4dj+ULf92WuYVYqmVbvwRdIEBAsHIsZWkc+b40nrpfitXRFb8B5+rdHV0FFkDBfBDiYFfkQaCMROlUkAOGp1Bfmb7Ss2W/n9+W7ZP0Q9JyzhjNe/U9bX6ZjNz212rXxnIm75c5RMEB0uHUG9tyTq5NgXzmf7fksaO8vb+ygP/CAYIP0jfOWi1ZuPvPJVw4D5AMY8749BWAg5wehEuKLkH4p38BMh7E0uQrywcHy+BZZWbzWnZGsfWpNsezfVi28pM2V7Ypm/fH9rTlbV9tv1Rf24cpWVI4FqRehO19dDZckEfuC+WvvoXgdC6WoYqtX4YuAkBA8CIBdjTh+Sdl5nt/BqOHElVruoVaDhyMPRQUBAdAYjgxgwNVJdjPSBGVwDY2EhhUJg7FV2BKsa5s23PbvHJuP9aR+FmuLdvPb7Mpm+9ps3JXDDCkZElhnoxlZvqAg9/usCjysU835KeHQymXVuY9SBcHIKRiCcs+tr1P3i2z3/kP+nNfhdow7IeZ6GT4UQCF8Q/KuaVNfgMuAQfa6FEQhxilpIl+Rd2otlFJEK7G879Pg21MOUrPBZHtl+3ruObtZyR5KydvTM84l7dJwYBsPxlJmf1c3iYOSZYUlBUYbOtjcT4zAzT8i08uylfuakkAefy5wJXSxQMIiD/MJ8GQtJ74gcx+7d9J++xTUhwe10vxWQDo7kZv92MK9CZ+G4NU7GT4Tiz/pQ6dutA/VJ4DB8tIWeP7ys3ml22jfFdv5br6pF/m8/rle/rRwEyu7Nq8ftm21S4prEbM0ZiP5MMfXZD//KWm1OsITKsICUyPFdFFBQhJQVIclfbpx2T2qx+RxXv/SsLFWSkOjSFWGcFWuIYJAgx8oz4uceOjr0fy6rq+ZY/j7sAn8gIO0GKEpg6JHcFUmUxWgVmjJHn06WnLG9enX3KGInFyvEydypNsXsvoz2m7fq7eHQoPVPOUC0rG+f38su1XBKC0Hwn5ItugCP0sm+gZhlA3jgLyd3y7Kbd/aF7+9AsticJYRtCG0G5VtKb3YlZEMEysv0hZByhGpbjzkJS3v0CKkzulALAoMtiN1kZfXkPV37WFYcxb91RAIM0f8x2Ye2ShUZTrrp6Uj/3htbJvbw06ouLQR2fPPzb55cTgJL/s8qScsuYhvwyOE7bd5pLIOtvHyUnkkVi2PK9NU86c/byWtcLL+2WOZ+q1MtUxuyBy7JlQfvhgR76IrezdD4fSaTMgLUiJV0xXCQ7SswcQRwSKfgUDUoQjYMIyVCjCyAFfrLb9eFZo3oKDHIFnDO9SQHwz3wjkuhdMyEf/8Bq59FL/C2ZJVB7zLpF5Zb9fUrZ1qXFIWg3Z5YJ89wfT8i8/flIeOFJXBa+GVExCvmXSLT3kuhIHKeo/jqsN3wGvAwz8ajOGHRPYpVSQ4Td0rAUYjtShPavEC2b80hUuMcPbpTByGYLXHTDAOD4dICm4BK8iTKNdjnoT13Sv6OiZrOsxFcbkgGIT83qmeeVUW6bc02blYQkx74pE+s5q2IpWlTqphJgqSdm2dIps6uAESCecQn0Sp8ynILZgK3vpREF2jRdkBPkK6i4EHKRnHyAJcaZIjCv4AAKXmCIMnySWs4keJjNF2kwvBCElRvXKfj5V9kDj2vU09fMEh9/PNM3hzGx2lkr6EywXlvCxYPBUBX0/lstCOiG86JN4RZRgoJdjWEJQXCAuEnr2l5iLRPxqAi4xH/uDQ7LvUngc/T17Z0gkPQqXt1zJLzNv65JynzyU/tAjdfnMF87LmfNte92AbY7y8l2zaI2+HOXqOF/PbPpZmtFEzC80YvnmPS0sCwjjf4an7lI0QACJAJBNAMjVCFJHcLpR+Zi6b1TSsmAgubwDGRm5TS4PkOiCrltK5HXJYd6O03tFyNO6rEriKJZdX9fWp+w+C7uVJx4J5ZXvnVa3To+wHmid4HQVRIW6q4hZo2bLDgCpNtT1tNm8lpm3ZcQCMo9FnpGf45rH5zPxGwnh2XryWrbJz/Nn0bVMOS6PxC8sayDOUa+4vmjwAJJrVMuTtky5p82OTbWhbimZuWOYkE21efmkL2W7PJIG2ahTbwOAcAjrNbZaXzRYAKECfUWnjMC8NU6qzTOY5pGWAoPfN5Hh6rNjYFxNruzavH7ZNl2umLdj2VX/KFrWHQ2gByFBwap0awjmUwby8lpmP69vqo3ctvty/H5+faqNzI7LtjkwJ23op0+WI+uAsdSt+XVCg7vEZA2SlFXz3bYEHEjZcf2Ak+SXGuO32TwTDc7gtog6bEE1rwEn2zyvsdR9lHVEgxmk+gZTbdv8qtq8fFJGf5dP6j0Z2gcGTtpscnneH0GaPhPKAw+35c4fNuTHP2nJieMISktsYzfwAQEHacAAQqUuYSCX7+sZPAA4OUmbTS6fqqcsEsdb7reT02OAfe/ulnz447Ny+4em5a2/Oy2/+k+n5YP/dlb+51ebot+bxvs7AwIO0oABxBmGBJ4Y1dYnhmWZBnP9/TbbTtYzjvk+Y5JnUFyZMmxel5VYvvjthnzwIzPyH7/ckDPnOvpCUqMRyTfubcubPzwnn/hcAxoHOAZI64MzVZ50emHK8yLOWM5gCTBY9tv8vDMs5XhtqTGe8TVPua6MlO2HGOPo46H8yWfn5MjJUHaMFaRWNfdCeJl8cqQgu5H+yZ805O772vri0qDQwABEYYFdgH6xvhrIGi1VtgbzDZnyCACW5iHN9wg9Y5jPymM+Rz75kMhXvt+UJ090hF88kHeZfBR9Wp1Y/vyr/C0YW+kTpsQdMC8Qryf4DA5AoLWFeqTPZhgNOgN5hkzKLm+TthEcHOjyrt6OT42hPCtTy36bzft9EVscOdaWucVYn/fsR5NDBfnhQwhY2xiX7YaqViuWWaT1ch+GNDAAodLOTIcyvwAF61tj1jhLGs/l2Q8W0TYPHK6PltnHpp62PnlXhkz+qICKWIoQq+hzTlkiWJBOnY9lBrGsuTG4PmhgAFJBxHfyfFuOHkegB1etW8WlzvJsmUwBAMqO0XIOcHLlUwa4Xi5nGeOgxd1b+QwGnAnF9KFFGP/gfqxBvDbCoY4ICBzTA4c7Moa45UKf4biYNFAehA/H/OBHczK3gHVclegZbFnD+gDgGPYB0z82ry5AM/hvucv7ZfddGxxH1g7l5uuKsmdboL8Hk+cleCufL62/+WVAR3YNAWbm52L55r2hjPHi2jqigQEIabxWkK9/f1YeOlxHCYbquZzt52GlpA3g8PsleewoXD9/fKpMa9u88xrJOynMox2e4UXXluW2l1dk22Qgs/VY6qjjDzs08REzC7EshAX5W7dW5LU3Vc3TQY4IdMQt9yA2+f5PQ6nx8YJ1RMUtW7b8vs2ve+Kb6E+eghsGUG564YiUqUxnTDJnSC2TU9kEAJj5Y+uZXD3J1iVtZC5vE22q903sGqJl/aNF0vVXlfXaB3cijRYCasQlfOLrwL6ivOUVFfnH76rJ0Cj6AzgJYUmpz4r8q//UkAeOmGNbTzQwDww5avAnK6ol+dD7t8uvvWnS2Isu3xmW3Deuy2cNnuoD5vJ55eQOrMungZGQ3ncJ5N77QvnpYfOKYw0AuWxvSV55PdBdAXqwS0kIVXxN4U//W0P++cfrAAeGs24d0cABhDQ9H8mVl1bld39ju9z62jGzbeTCr0fCP0ipba2tS5YTkq3zyykQgRJgQJZiog8wfGIzL4Rxu8sn7xlvUAZiEOd8lAiEsYL85V825Q8+VZezM5GM8p2WdUYDtcQ4qpYLcuREKMdONGUU+eddNQQjQPs0cGJkMpen4h04sm02abXNExjkup1YBTgccQmhpyAneBnqUKQjLo0Aw//4XEP+6NMNHEukV1vXIw0kQGi3EZyljz3ZlsePtWVxviMH91akyjfKeJamgGKB44zPRJbkLTeVntdA0qULtBpwLEXcEmCO509G8qn/XpePf64pjx6LZNv4+gQHaSABQiJIhhHQHT/dlvsfbciTJ9tSgU3370MgQBfPayW63bUDHAgSQJC5vE2KA+bpNcAVGKQLNCCXEwan8CRf+XpLPvEXTfmzL7VkejaWzVhm1jMNZAySpXozlvmWyEsOVuWma2ry6huH5Oevw7IzgsYGjMxYQG1tgcCk4CCB+14jKSta2GFtRG/BHzkCiMMzkXznvrZ8865QvvvjUO45HMoEQFxdZ9c88ug5ARASV4N5BIL8aoNDl1fk0JVVuf75FbnxmorswS5Cn+riU+pMLsYgJeBwXoOgWAM42J2egqBgWojksaORftX1Dx/uyE8e68j9j5t3fBmMrqerpUvRcwYgjnipmx6FL4Dv31mU/XuKcsXushzcX5KrryzLgT2BlDfh9OZb83zNgN9fwu8icUvSSoDBLvQQ3Kk4UGD7PXdWEFOE8gDA8OATkRw53pHDiDGeOtXR+yu8CLbetrHL0XMOII64621hB8Gbv3wmY/tUINu3IG0uyt4dRdmHdPnuQHZtC2TLBDYWNaiB1yn0KxZgTXoVpxkCwuXtDmVhPpZT52K9cPcEQPDE8UiOnY7k9PlITp6N5SSWlRAeSV+lhPdaT3doV0PPWYA4YqhBsLThIXjpm2c+L9lPjBVlEgHiGILHTYhVmB9HfnS4ICMIX/hmfImnPcbzOY5Gk48bxPrtgLx0zotgvL0/C6CcR/78bCSLAA6/noVv1NNT8Cc2BmUp6UfPeYBkiYChV+ng7CZwGLsQB7xbXOEGCIFjqRTDuPz+NDOGfYxHivTeSquNwBOVXJEIAnoHegpeZh90QGTp/zuA5BFjU4KAnAAyGxz+MdZ2X4NlfrXCAIL8uQaGPNoAyAYtSTgXNmiD+tMGQDZoSdoAyAYtSRsA2aAlSOT/AuG2b6W79VUSAAAAAElFTkSuQmCC;strokeColor=#000000;fontColor=#080808;" vertex="1" parent="1">
                    <mxGeometry x="180" y="160" width="41.21" height="40" as="geometry"/>
                </mxCell>
                <mxCell id="13" value="&lt;font color=&quot;#080808&quot;&gt;Airflow DAG&lt;/font&gt;" style="text;html=1;align=center;verticalAlign=middle;resizable=0;points=[];autosize=1;strokeColor=none;fillColor=none;" vertex="1" parent="1">
                    <mxGeometry x="299.25" y="110" width="90" height="30" as="geometry"/>
                </mxCell>
                <mxCell id="20" style="edgeStyle=none;html=1;exitX=0.5;exitY=1;exitDx=0;exitDy=0;entryX=0.5;entryY=0;entryDx=0;entryDy=0;dashed=1;strokeColor=#000000;" edge="1" parent="1" source="14" target="4">
                    <mxGeometry relative="1" as="geometry"/>
                </mxCell>
                <mxCell id="21" style="edgeStyle=none;html=1;exitX=1;exitY=0.5;exitDx=0;exitDy=0;entryX=0;entryY=0.5;entryDx=0;entryDy=0;strokeColor=#000000;" edge="1" parent="1" source="14" target="11">
                    <mxGeometry relative="1" as="geometry"/>
                </mxCell>
                <mxCell id="14" value="Airflow operator.&#10;Cloud storage to Big Query" style="shape=image;verticalLabelPosition=bottom;labelBackgroundColor=none;verticalAlign=top;aspect=fixed;imageAspect=0;image=data:image/png,iVBORw0KGgoAAAANSUhEUgAAAD0AAABGCAYAAAB/h5zrAAAAAXNSR0IArs4c6QAAAARnQU1BAACxjwv8YQUAAAAJcEhZcwAADsMAAA7DAcdvqGQAAAtnSURBVHhe7ZppbFzVGYbfOzOeGS/xFm9xbOKJ20QGFBJCNlqcBJG0KUtbSBWWAmnEjxYQoKAiED8SECpIbEJdQKIhpEKlVRUEooU2SHGSVoRCmhCC0lCWcTYSJ3Zij2dsz3hmbt/vLuPZlztjFoVHurp3zh3b85zvO985544VleAcw2aczym+kT5X+Eb6XEGr3pETxxB4Y6vRBDhaphtXOvZpbdrZwbN5/XVkhy+ADpdzQvp4azts3zLuJk9iIeM8zl7yeFI6wTV3ofZau754sXb9VUOEl793CJvndOrS0miK25d4tDdlQx0d1i8iPIeDsU5RR4GyxZdpneGctwguOb4CnaAJ7/0fo2TH5tnnTUgLhYhnQusQ6YzRINQRvRNEvGLVtV9KB8SE3U4GKIKe+EibxFJ9bgOU8ilGq3W0Tgj2Qx3SO6B63V2ouHK1cXdySRAWMkkLIt63qh0RRsrWYD3qyUgHqGf7UTb/MjT+5o+TWhRThAVDOu2UJR+m+c2jsFcA0X6v0Vo8kjm2Vg/GD/wTp9ZcAt+mZ4w7pSWtcBwZ5+nJEhckeyLDEQzedk/JxbMKK4o2ZWVdnEymuERdCmYpxXNF2CTtmE5mssa4oEYisJ0+gro7H0T5z+4G6hqNO4WRr7C6+IL8lqGTGnG7HeNTGhHZ9TpG7r4GOHvauJM/vcFxLN//SU5hk7zX3pM6xsucGPGFUNHegcDt3ytIXIQ97x7kfOgwWjIQjXI8l2mXeUsLkyVuc1L65DEuZkKobJ2et3jewkkUJC1Mlrhi50bAxo/jqkZlU1NO8YKFo6pWuYWCpYUE8YHSiItwKMBKqYh4LSqnz0DwJ01pxa1GeGk1PzCxJC2Y4u75SxE9UtoxrmFzwbXoRoyuSBS3KhyPZWlBxOuffAnu7qWwHfWiwsfDb60DVBYaZ0W5XBgtZDyC8h/cHBMX4dkfH2U2KMYbCmNZdaV2LkpaMMXPXL0G91/1FDYtugPVn+kdUBBRbtYrmX5cHycwFtLEcV0TbjrwX4QGA9oWsRiUfBYnuXi7L4rv9PCijX0ov62vH7949/d4/PkHMNiVx/6cCxRao23FMu7NKZ8O/3FctPhWfDCXBW7EZzQWhixMhKIjrQm/wZRssqGKu8gqPxvrGvDsD+9H1QtnUL87d8SjIc7RzUxhKWKZGOvHBw3tXB6GjYYCiJujhaKkY8LnOVAVNBpJVYiHBKOhDhWvnEFdHuJlLheljRfJjI8hKBk982LuzVnhC4XT1a2NtcaLIqQThM1naEloUW+qQ+Xz76HuUGZxNRyCix2ESFwRi+fUm3CveQ4YlV9oDXOOFixLr36HgzeLsIkW8QsuwS/XPYL646niMp7t5W44GxsY0TTj+dSHeHrOz/m35liLssDCt7bYSLe+FsGJKntOYZOqQeB3qx/Ec5evTZnSZDzXejIUu4FPsbupDevXPAqc+dxoLJCk8SwULK0J19ghT88Ut3Ewc+TICmea9Vc9AdcB47WBpLazviY1tU/8C7unTsWld7wGnMxdEzKSNJ4FpZApSxNuZISZspFAFFG/XkltUxxQx1U42+xMV/mllKGDOqbdjuGnW/euP+Nvz1+PoWaPPlWpYbR9/wpWZ6MSsmjhyGtQbngZmLsK6D+mtxeBOVWZ5C3teWUcvQN86+4zQAVLqVRaM0/MIIV5v5L3Wp1w1bvhms204hCI7wA/U+TVxxag+/ge+KKNqP92J6acP0uXHjiEoC2oF602ftDBPv2HrMKFzoaOFmxs43QYR17SC14awZ5/cBJusEPhWM6GKuIhWgZ5drNX4jpApdew/Pih9+B/ZCH8LdPQvIqLjT6m78BOrFzxON5afhvfdNZ60YqH0t4FXSljOqf05S8Mo2fXGJT2whf4CR3gVOCcVQVnp1uL9tOPLMUVrhAunObAUx2LcO/Sdax4jcDQKeOni2Q8jA2eaSlRFrJKP7R9FBu3BKCclz26+aB1wBg7IORGTe0BzOm5FL7Redj/8GNA10JuKCgbybAELRSp2OUueOdx2KQhY/Xe4Q1j46/9JREWFAeLQHQqxaswVHMQjZ8vwAw/s6e9k9X5MLNhlD2TNenyh1He3Jn4zWs8GSM986kheE9EOCVZ28YlMO6G+nk5lEVvwrHiTow3twF/pXBtB6Yu2cSZYBCjPh+CPBDmjCBPUOwWOltUuCvbfOHMhMVIMmkjLWntPRguibDaXwfVF4L9jqvh+PFPuQm7GPY+bhyk5A+8gFD/XtiUMlTW1KB2+nRUt7ZybFdxGLDsSwfIoe3CssB01t+n4skLsgsLaSNdqiirn9bBftWzsK28HergNYx4JZQyG8InA1APM6p2zsFV0zF14XZEx1ixiSIPCBjpKEUjFJdzYIzz3dCQngHJyMd3c4XkLsftjTX4bUt2YSFFWsby8ocGWa2LGMuSzofKYX/wciitLFA+rpsF+qj84JFdR4D6cr1taBsq5m2Fu3EVFyuJqxmtA/QL7RlamGtzaZPOEOxOJ+wOBwa46rreFsHLrdy05EFK1+30soKWFxHhQC1U/zjsD1wNRWYLU1iwM4InuFMqj5s3K5dg5OProLiMTohD4qEdTN8o09cm8myXbagccj3ATLgoHMxbWEiRfqiHc3JD2qGeG4lwaBj2W26A0sLF9kiLcUNHsStQh7hCkUpu4uCkzcI9sP822Nz5fXCzM86yEy7iNPd+R2FfBSXY9Q5GoZ5lUbCIeoQpffNNUJppkSQsYYnKXD0g/6ORNHSqVgLeTRj+5HGO+dxjUrAqLCRIb9nLKOQolJmQKi1FS2nzpgoLktrHuZR1ZqgV1UsQOnYfwsP7OKfrTy0zUYywkCC9s5dl32VhPDOt4R7QqnTCGE5CcWdZykqaR7rg2zMfYf+HGSNerLCQIC2VW5lSuLTqZ1p3v8jzd42WVGSqih7sZxHLIu7i/K1Q/P358HufgM3FMa5MZEaIwu3h4oSFmHRR49muInJiNsK2QaMhCRnPYxw3FM+JiIOp/uF9FH+GBWsEipMzgrMa9RQ+4ilOWIh9Coly7J/kCmXIjyUVXdwS1iCspOk4RghjnArlnA+S6g0rEfzoHgzu6caZfTdicN9NsH90r/GG4ohJHz7LSFhZ7h6NYHk38PbaTng9Wyl3OL24zUKtmMKqHm5gp+7lsQ+9/e/A8/dbjJvWmZBmehcqrQu7sH0dI0M6KprhnfWqLi6Tr4mk9ygzyYK3FnVnh35UeGLivSPWn6okjOmERUMOkoVNYuLhOopnGOPFYIpvW21ZPFE68alKRjIJm2jinY9SvEUX55rEJlU7ZWtjEYrD32dZfEKalTufXVUuYZMUcW77WIqNuyWgCHFNOt/pKl9hk5h4qBmROq72nPxzIl8qLIrHIp2LQoVNYuJ+VuFpLG5jLGilxIK4HmmJctKD+XjU01FLwiaa+MxfYXnTFfxlPaWNtlCgeM5Iq0x9zyyHZWETEd/e9TA2LPgD0P+W0VpCChCPjel0+pqwx4HP1tcYLcWzsetmbFhGcd82o6WE5CmeMdKTIWwi4j1X7ucWlOKB/xitJSIP8bTSkylssqxxDrzXnsTa8x9gPfmotPI5xDXp+HX3FyFsIuN88/x74f3Rv+PkGf3Rw8Y7isAUf+sG7Dj9gdGooz0N1b6++csIl6H4woTTIVF58fA27Ow/gB3HuJSNcv8dZVxsnO7KZxjvKpARr7aH7+n+k5ZdwoT0lgBQbUPP+moso/iXjXTAjtP7tQ7QrqUT5Jv/iPEfCWZnCI46LqGr9et0JIlPSL8+ip67vhrC6TDHpnSEYHaG0Bs4qV+HjmuvNaIDxoXB+Eltb9GzYr8urU1ZpKM2YzH/WmB2gtAbSCxgvSOUJmtnrEz9huNc4OsdWot8I31uAPwfgh9uD0uyrNAAAAAASUVORK5CYII=;strokeColor=#000000;fontColor=#000000;" vertex="1" parent="1">
                    <mxGeometry x="310" y="160" width="34.86" height="40" as="geometry"/>
                </mxCell>
                <mxCell id="18" style="edgeStyle=none;html=1;exitX=1;exitY=0.5;exitDx=0;exitDy=0;entryX=0;entryY=0.5;entryDx=0;entryDy=0;dashed=1;strokeColor=#000000;" edge="1" parent="1" source="15" target="4">
                    <mxGeometry relative="1" as="geometry">
                        <Array as="points"/>
                    </mxGeometry>
                </mxCell>
                <mxCell id="15" value="&lt;font color=&quot;#000000&quot;&gt;Cloud&lt;br&gt;Storage&lt;/font&gt;" style="html=1;verticalAlign=top;labelPosition=center;verticalLabelPosition=bottom;align=center;spacingTop=-6;fontSize=11;fontStyle=1;fontColor=#999999;shape=image;aspect=fixed;imageAspect=0;image=data:image/svg+xml,PHN2ZyB4bWxucz0iaHR0cDovL3d3dy53My5vcmcvMjAwMC9zdmciIHhtbG5zOnY9Imh0dHBzOi8vdmVjdGEuaW8vbmFubyIgd2lkdGg9IjIwIiBoZWlnaHQ9IjE2IiB2aWV3Qm94PSIwIDAgMjAgMTYiPiYjeGE7CTxzdHlsZSB0eXBlPSJ0ZXh0L2NzcyI+JiN4YTsJLnN0MHtmaWxsOiM0Mjg1ZjQ7fSYjeGE7CS5zdDF7ZmlsbDojNjY5ZGY2O30mI3hhOwkuc3Qye2ZpbGw6I2FlY2JmYTt9JiN4YTsJLnN0M3tmaWxsOiNmZmY7fSYjeGE7CTwvc3R5bGU+JiN4YTsJPHBhdGggY2xhc3M9InN0MiIgZD0iTTAgMGgyMHY3SDB6Ii8+JiN4YTsJPHBhdGggY2xhc3M9InN0MSIgZD0iTTE4IDBoMnY3aC0yeiIvPiYjeGE7CTxwYXRoIGNsYXNzPSJzdDAiIGQ9Ik0xOCA3bDItN2gtMnoiLz4mI3hhOwk8cGF0aCBjbGFzcz0ic3QxIiBkPSJNMCAwaDJ2N0gweiIvPiYjeGE7CTxnIGNsYXNzPSJzdDMiPiYjeGE7CQk8cGF0aCBkPSJNNCAzaDZ2MUg0eiIvPiYjeGE7CQk8cmVjdCB4PSIxMyIgeT0iMiIgd2lkdGg9IjMiIGhlaWdodD0iMyIgcng9IjEuNSIvPiYjeGE7CTwvZz4mI3hhOwk8cGF0aCBjbGFzcz0ic3QyIiBkPSJNMCA5aDIwdjdIMHoiLz4mI3hhOwk8cGF0aCBjbGFzcz0ic3QxIiBkPSJNMTggOWgydjdoLTJ6Ii8+JiN4YTsJPHBhdGggY2xhc3M9InN0MCIgZD0iTTE4IDE2bDItN2gtMnoiLz4mI3hhOwk8cGF0aCBjbGFzcz0ic3QxIiBkPSJNMCA5aDJ2N0gweiIvPiYjeGE7CTxnIGNsYXNzPSJzdDMiPiYjeGE7CQk8cGF0aCBkPSJNNCAxMmg2djFINHoiLz4mI3hhOwkJPHJlY3QgeD0iMTMiIHk9IjExIiB3aWR0aD0iMyIgaGVpZ2h0PSIzIiByeD0iMS41Ii8+JiN4YTsJPC9nPiYjeGE7PC9zdmc+;strokeColor=#000000;" vertex="1" parent="1">
                    <mxGeometry x="180" y="290" width="42" height="34" as="geometry"/>
                </mxCell>
                <mxCell id="26" style="edgeStyle=none;html=1;exitX=1;exitY=0.5;exitDx=0;exitDy=0;entryX=0;entryY=0.5;entryDx=0;entryDy=0;dashed=1;strokeColor=#000000;" edge="1" parent="1" source="22" target="23">
                    <mxGeometry relative="1" as="geometry"/>
                </mxCell>
                <mxCell id="22" value="&lt;font color=&quot;#000000&quot;&gt;BigQuery&lt;br&gt;Silver (deaggregated data)&lt;/font&gt;" style="html=1;verticalAlign=top;labelPosition=center;verticalLabelPosition=bottom;align=center;spacingTop=-6;fontSize=11;fontStyle=1;fontColor=#999999;shape=image;aspect=fixed;imageAspect=0;image=data:image/svg+xml,PHN2ZyB4bWxucz0iaHR0cDovL3d3dy53My5vcmcvMjAwMC9zdmciIHhtbG5zOnY9Imh0dHBzOi8vdmVjdGEuaW8vbmFubyIgd2lkdGg9IjIwLjAwMTA0NTIyNzA1MDc4IiBoZWlnaHQ9IjIwLjAwMTA0NTIyNzA1MDc4IiBmaWxsLXJ1bGU9ImV2ZW5vZGQiIHZpZXdCb3g9IjAgMCAyMC4wMDEwNDUyMjcwNTA3OCAyMC4wMDEwNDUyMjcwNTA3OCI+JiN4YTsJPHN0eWxlIHR5cGU9InRleHQvY3NzIj4mI3hhOwkuc3Qwe2ZpbGw6I2FlY2JmYTt9JiN4YTsJLnN0MXtmaWxsOiM2NjlkZjY7fSYjeGE7CS5zdDJ7ZmlsbDojNDI4NWY0O30mI3hhOwk8L3N0eWxlPiYjeGE7CTxwYXRoIGNsYXNzPSJzdDAiIGQ9Ik00LjczIDguODN2Mi42M2E0LjkxIDQuOTEgMCAwIDAgMS43MSAxLjc0VjguODN6Ii8+JiN4YTsJPHBhdGggY2xhc3M9InN0MSIgZD0iTTcuODkgNi40MXY3LjUzQTcuNjIgNy42MiAwIDAgMCA5IDE0YTggOCAwIDAgMCAxIDBWNi40MXoiLz4mI3hhOwk8cGF0aCBjbGFzcz0ic3QwIiBkPSJNMTEuNjQgOS44NnYzLjI5YTUgNSAwIDAgMCAxLjctMS44MlY5Ljg2eiIvPiYjeGE7CTxwYXRoIGNsYXNzPSJzdDIiIGQ9Ik0xNS43NCAxNC4zMmwtMS40MiAxLjQyYS40Mi40MiAwIDAgMCAwIC42bDMuNTQgMy41NGEuNDIuNDIgMCAwIDAgLjU5IDBsMS40My0xLjQzYS40Mi40MiAwIDAgMCAwLS41OWwtMy41NC0zLjU0YS40Mi40MiAwIDAgMC0uNiAwIi8+JiN4YTsJPHBhdGggY2xhc3M9InN0MSIgZD0iTTkgMGE5IDkgMCAxIDAgMCAxOEE5IDkgMCAxIDAgOSAwbTAgMTUuNjlhNi42OCA2LjY4IDAgMCAxIC4wMDctMTMuMzYgNi42OCA2LjY4IDAgMCAxIDQuNzI3IDExLjQwM0E2LjY4IDYuNjggMCAwIDEgOSAxNS42OSIvPiYjeGE7PC9zdmc+;strokeColor=#000000;" vertex="1" parent="1">
                    <mxGeometry x="474.95000000000005" y="285" width="44" height="44" as="geometry"/>
                </mxCell>
                <mxCell id="29" style="edgeStyle=none;html=1;exitX=1;exitY=0.5;exitDx=0;exitDy=0;entryX=0;entryY=0.5;entryDx=0;entryDy=0;strokeColor=#000000;" edge="1" parent="1" source="23" target="7">
                    <mxGeometry relative="1" as="geometry"/>
                </mxCell>
                <mxCell id="23" value="&lt;font color=&quot;#000000&quot;&gt;BigQuery.&lt;br&gt;Bronze&lt;/font&gt;" style="html=1;verticalAlign=top;labelPosition=center;verticalLabelPosition=bottom;align=center;spacingTop=-6;fontSize=11;fontStyle=1;fontColor=#999999;shape=image;aspect=fixed;imageAspect=0;image=data:image/svg+xml,PHN2ZyB4bWxucz0iaHR0cDovL3d3dy53My5vcmcvMjAwMC9zdmciIHhtbG5zOnY9Imh0dHBzOi8vdmVjdGEuaW8vbmFubyIgd2lkdGg9IjIwLjAwMTA0NTIyNzA1MDc4IiBoZWlnaHQ9IjIwLjAwMTA0NTIyNzA1MDc4IiBmaWxsLXJ1bGU9ImV2ZW5vZGQiIHZpZXdCb3g9IjAgMCAyMC4wMDEwNDUyMjcwNTA3OCAyMC4wMDEwNDUyMjcwNTA3OCI+JiN4YTsJPHN0eWxlIHR5cGU9InRleHQvY3NzIj4mI3hhOwkuc3Qwe2ZpbGw6I2FlY2JmYTt9JiN4YTsJLnN0MXtmaWxsOiM2NjlkZjY7fSYjeGE7CS5zdDJ7ZmlsbDojNDI4NWY0O30mI3hhOwk8L3N0eWxlPiYjeGE7CTxwYXRoIGNsYXNzPSJzdDAiIGQ9Ik00LjczIDguODN2Mi42M2E0LjkxIDQuOTEgMCAwIDAgMS43MSAxLjc0VjguODN6Ii8+JiN4YTsJPHBhdGggY2xhc3M9InN0MSIgZD0iTTcuODkgNi40MXY3LjUzQTcuNjIgNy42MiAwIDAgMCA5IDE0YTggOCAwIDAgMCAxIDBWNi40MXoiLz4mI3hhOwk8cGF0aCBjbGFzcz0ic3QwIiBkPSJNMTEuNjQgOS44NnYzLjI5YTUgNSAwIDAgMCAxLjctMS44MlY5Ljg2eiIvPiYjeGE7CTxwYXRoIGNsYXNzPSJzdDIiIGQ9Ik0xNS43NCAxNC4zMmwtMS40MiAxLjQyYS40Mi40MiAwIDAgMCAwIC42bDMuNTQgMy41NGEuNDIuNDIgMCAwIDAgLjU5IDBsMS40My0xLjQzYS40Mi40MiAwIDAgMCAwLS41OWwtMy41NC0zLjU0YS40Mi40MiAwIDAgMC0uNiAwIi8+JiN4YTsJPHBhdGggY2xhc3M9InN0MSIgZD0iTTkgMGE5IDkgMCAxIDAgMCAxOEE5IDkgMCAxIDAgOSAwbTAgMTUuNjlhNi42OCA2LjY4IDAgMCAxIC4wMDctMTMuMzYgNi42OCA2LjY4IDAgMCAxIDQuNzI3IDExLjQwM0E2LjY4IDYuNjggMCAwIDEgOSAxNS42OSIvPiYjeGE7PC9zdmc+;strokeColor=#000000;" vertex="1" parent="1">
                    <mxGeometry x="600" y="286" width="44" height="44" as="geometry"/>
                </mxCell>
            </root>
        </mxGraphModel>
    </diagram>
</mxfile>